M48
; DRILL file {KiCad 5.1.6} date Sat Oct  3 13:29:10 2020
; FORMAT={-:-/ absolute / inch / decimal}
; #@! TF.CreationDate,2020-10-03T13:29:10+02:00
; #@! TF.GenerationSoftware,Kicad,Pcbnew,5.1.6
; #@! TF.FileFunction,Plated,1,2,PTH
FMAT,2
INCH
T1C0.0157
T2C0.0299
T3C0.0394
%
G90
G05
T1
X5.315Y-4.2913
X5.3543Y-4.252
X5.5512Y-3.9764
X5.5512Y-4.0551
X5.5512Y-4.1339
X5.6299Y-3.9764
X5.6299Y-4.0551
X5.6299Y-4.1339
T2
X5.0181Y-4.1445
X5.0181Y-4.2445
X5.0181Y-4.3445
X5.1181Y-4.0945
X5.1181Y-4.1945
X5.1181Y-4.2945
T3
X5.9311Y-3.7697
X5.9311Y-3.8697
X5.9311Y-3.9697
X5.9311Y-4.0697
X5.9311Y-4.1697
X5.9311Y-4.2697
X5.9311Y-4.3697
X5.9311Y-4.4697
X5.9311Y-4.5697
X5.9311Y-4.6697
X6.0311Y-3.7697
X6.0311Y-3.8697
X6.0311Y-3.9697
X6.0311Y-4.0697
X6.0311Y-4.1697
X6.0311Y-4.2697
X6.0311Y-4.3697
X6.0311Y-4.4697
X6.0311Y-4.5697
X6.0311Y-4.6697
T0
M30
