G04 #@! TF.GenerationSoftware,KiCad,Pcbnew,5.1.6*
G04 #@! TF.CreationDate,2020-10-03T13:29:01+02:00*
G04 #@! TF.ProjectId,TagConnect2ARM,54616743-6f6e-46e6-9563-743241524d2e,rev?*
G04 #@! TF.SameCoordinates,Original*
G04 #@! TF.FileFunction,Legend,Bot*
G04 #@! TF.FilePolarity,Positive*
%FSLAX46Y46*%
G04 Gerber Fmt 4.6, Leading zero omitted, Abs format (unit mm)*
G04 Created by KiCad (PCBNEW 5.1.6) date 2020-10-03 13:29:01*
%MOMM*%
%LPD*%
G01*
G04 APERTURE LIST*
%ADD10C,0.200000*%
%ADD11C,0.300000*%
%ADD12R,1.620000X1.620000*%
%ADD13C,3.350000*%
%ADD14C,1.620000*%
%ADD15C,1.800000*%
G04 APERTURE END LIST*
D10*
X156178571Y-92190476D02*
X157392857Y-92190476D01*
X157535714Y-92130952D01*
X157607142Y-92071428D01*
X157678571Y-91952380D01*
X157678571Y-91773809D01*
X157607142Y-91654761D01*
X157107142Y-92190476D02*
X157178571Y-92071428D01*
X157178571Y-91833333D01*
X157107142Y-91714285D01*
X157035714Y-91654761D01*
X156892857Y-91595238D01*
X156464285Y-91595238D01*
X156321428Y-91654761D01*
X156250000Y-91714285D01*
X156178571Y-91833333D01*
X156178571Y-92071428D01*
X156250000Y-92190476D01*
X157178571Y-92785714D02*
X156178571Y-92785714D01*
X155678571Y-92785714D02*
X155750000Y-92726190D01*
X155821428Y-92785714D01*
X155750000Y-92845238D01*
X155678571Y-92785714D01*
X155821428Y-92785714D01*
X156178571Y-93202380D02*
X156178571Y-93678571D01*
X155678571Y-93380952D02*
X156964285Y-93380952D01*
X157107142Y-93440476D01*
X157178571Y-93559523D01*
X157178571Y-93678571D01*
X157178571Y-94095238D02*
X155678571Y-94095238D01*
X157178571Y-94630952D02*
X156392857Y-94630952D01*
X156250000Y-94571428D01*
X156178571Y-94452380D01*
X156178571Y-94273809D01*
X156250000Y-94154761D01*
X156321428Y-94095238D01*
X156178571Y-95761904D02*
X157178571Y-95761904D01*
X156178571Y-95226190D02*
X156964285Y-95226190D01*
X157107142Y-95285714D01*
X157178571Y-95404761D01*
X157178571Y-95583333D01*
X157107142Y-95702380D01*
X157035714Y-95761904D01*
X157178571Y-96357142D02*
X155678571Y-96357142D01*
X156250000Y-96357142D02*
X156178571Y-96476190D01*
X156178571Y-96714285D01*
X156250000Y-96833333D01*
X156321428Y-96892857D01*
X156464285Y-96952380D01*
X156892857Y-96952380D01*
X157035714Y-96892857D01*
X157107142Y-96833333D01*
X157178571Y-96714285D01*
X157178571Y-96476190D01*
X157107142Y-96357142D01*
X157035714Y-97488095D02*
X157107142Y-97547619D01*
X157178571Y-97488095D01*
X157107142Y-97428571D01*
X157035714Y-97488095D01*
X157178571Y-97488095D01*
X157107142Y-98619047D02*
X157178571Y-98499999D01*
X157178571Y-98261904D01*
X157107142Y-98142857D01*
X157035714Y-98083333D01*
X156892857Y-98023809D01*
X156464285Y-98023809D01*
X156321428Y-98083333D01*
X156250000Y-98142857D01*
X156178571Y-98261904D01*
X156178571Y-98499999D01*
X156250000Y-98619047D01*
X157178571Y-99333333D02*
X157107142Y-99214285D01*
X157035714Y-99154761D01*
X156892857Y-99095238D01*
X156464285Y-99095238D01*
X156321428Y-99154761D01*
X156250000Y-99214285D01*
X156178571Y-99333333D01*
X156178571Y-99511904D01*
X156250000Y-99630952D01*
X156321428Y-99690476D01*
X156464285Y-99749999D01*
X156892857Y-99749999D01*
X157035714Y-99690476D01*
X157107142Y-99630952D01*
X157178571Y-99511904D01*
X157178571Y-99333333D01*
X157178571Y-100285714D02*
X156178571Y-100285714D01*
X156321428Y-100285714D02*
X156250000Y-100345238D01*
X156178571Y-100464285D01*
X156178571Y-100642857D01*
X156250000Y-100761904D01*
X156392857Y-100821428D01*
X157178571Y-100821428D01*
X156392857Y-100821428D02*
X156250000Y-100880952D01*
X156178571Y-100999999D01*
X156178571Y-101178571D01*
X156250000Y-101297619D01*
X156392857Y-101357142D01*
X157178571Y-101357142D01*
X155607142Y-102845238D02*
X157535714Y-101773809D01*
X156178571Y-103083333D02*
X156178571Y-103559523D01*
X157178571Y-103261904D02*
X155892857Y-103261904D01*
X155750000Y-103321428D01*
X155678571Y-103440476D01*
X155678571Y-103559523D01*
X157178571Y-104630952D02*
X157178571Y-103916666D01*
X157178571Y-104273809D02*
X155678571Y-104273809D01*
X155892857Y-104154761D01*
X156035714Y-104035714D01*
X156107142Y-103916666D01*
X156178571Y-104988095D02*
X156178571Y-105464285D01*
X155678571Y-105166666D02*
X156964285Y-105166666D01*
X157107142Y-105226190D01*
X157178571Y-105345238D01*
X157178571Y-105464285D01*
X155678571Y-105761904D02*
X155678571Y-106535714D01*
X156250000Y-106119047D01*
X156250000Y-106297619D01*
X156321428Y-106416666D01*
X156392857Y-106476190D01*
X156535714Y-106535714D01*
X156892857Y-106535714D01*
X157035714Y-106476190D01*
X157107142Y-106416666D01*
X157178571Y-106297619D01*
X157178571Y-105940476D01*
X157107142Y-105821428D01*
X157035714Y-105761904D01*
X155607142Y-107964285D02*
X157535714Y-106892857D01*
X156178571Y-108202380D02*
X156178571Y-108678571D01*
X155678571Y-108380952D02*
X156964285Y-108380952D01*
X157107142Y-108440476D01*
X157178571Y-108559523D01*
X157178571Y-108678571D01*
X157178571Y-109630952D02*
X156392857Y-109630952D01*
X156250000Y-109571428D01*
X156178571Y-109452380D01*
X156178571Y-109214285D01*
X156250000Y-109095238D01*
X157107142Y-109630952D02*
X157178571Y-109511904D01*
X157178571Y-109214285D01*
X157107142Y-109095238D01*
X156964285Y-109035714D01*
X156821428Y-109035714D01*
X156678571Y-109095238D01*
X156607142Y-109214285D01*
X156607142Y-109511904D01*
X156535714Y-109630952D01*
X156178571Y-110761904D02*
X157392857Y-110761904D01*
X157535714Y-110702380D01*
X157607142Y-110642857D01*
X157678571Y-110523809D01*
X157678571Y-110345238D01*
X157607142Y-110226190D01*
X157107142Y-110761904D02*
X157178571Y-110642857D01*
X157178571Y-110404761D01*
X157107142Y-110285714D01*
X157035714Y-110226190D01*
X156892857Y-110166666D01*
X156464285Y-110166666D01*
X156321428Y-110226190D01*
X156250000Y-110285714D01*
X156178571Y-110404761D01*
X156178571Y-110642857D01*
X156250000Y-110761904D01*
X157107142Y-111892857D02*
X157178571Y-111773809D01*
X157178571Y-111535714D01*
X157107142Y-111416666D01*
X157035714Y-111357142D01*
X156892857Y-111297619D01*
X156464285Y-111297619D01*
X156321428Y-111357142D01*
X156250000Y-111416666D01*
X156178571Y-111535714D01*
X156178571Y-111773809D01*
X156250000Y-111892857D01*
X157178571Y-112607142D02*
X157107142Y-112488095D01*
X157035714Y-112428571D01*
X156892857Y-112369047D01*
X156464285Y-112369047D01*
X156321428Y-112428571D01*
X156250000Y-112488095D01*
X156178571Y-112607142D01*
X156178571Y-112785714D01*
X156250000Y-112904761D01*
X156321428Y-112964285D01*
X156464285Y-113023809D01*
X156892857Y-113023809D01*
X157035714Y-112964285D01*
X157107142Y-112904761D01*
X157178571Y-112785714D01*
X157178571Y-112607142D01*
X156178571Y-113559523D02*
X157178571Y-113559523D01*
X156321428Y-113559523D02*
X156250000Y-113619047D01*
X156178571Y-113738095D01*
X156178571Y-113916666D01*
X156250000Y-114035714D01*
X156392857Y-114095238D01*
X157178571Y-114095238D01*
X156178571Y-114690476D02*
X157178571Y-114690476D01*
X156321428Y-114690476D02*
X156250000Y-114749999D01*
X156178571Y-114869047D01*
X156178571Y-115047619D01*
X156250000Y-115166666D01*
X156392857Y-115226190D01*
X157178571Y-115226190D01*
X157107142Y-116297619D02*
X157178571Y-116178571D01*
X157178571Y-115940476D01*
X157107142Y-115821428D01*
X156964285Y-115761904D01*
X156392857Y-115761904D01*
X156250000Y-115821428D01*
X156178571Y-115940476D01*
X156178571Y-116178571D01*
X156250000Y-116297619D01*
X156392857Y-116357142D01*
X156535714Y-116357142D01*
X156678571Y-115761904D01*
X157107142Y-117428571D02*
X157178571Y-117309523D01*
X157178571Y-117071428D01*
X157107142Y-116952380D01*
X157035714Y-116892857D01*
X156892857Y-116833333D01*
X156464285Y-116833333D01*
X156321428Y-116892857D01*
X156250000Y-116952380D01*
X156178571Y-117071428D01*
X156178571Y-117309523D01*
X156250000Y-117428571D01*
X156178571Y-117785714D02*
X156178571Y-118261904D01*
X155678571Y-117964285D02*
X156964285Y-117964285D01*
X157107142Y-118023809D01*
X157178571Y-118142857D01*
X157178571Y-118261904D01*
X155821428Y-118619047D02*
X155750000Y-118678571D01*
X155678571Y-118797619D01*
X155678571Y-119095238D01*
X155750000Y-119214285D01*
X155821428Y-119273809D01*
X155964285Y-119333333D01*
X156107142Y-119333333D01*
X156321428Y-119273809D01*
X157178571Y-118559523D01*
X157178571Y-119333333D01*
X157178571Y-120404761D02*
X156392857Y-120404761D01*
X156250000Y-120345238D01*
X156178571Y-120226190D01*
X156178571Y-119988095D01*
X156250000Y-119869047D01*
X157107142Y-120404761D02*
X157178571Y-120285714D01*
X157178571Y-119988095D01*
X157107142Y-119869047D01*
X156964285Y-119809523D01*
X156821428Y-119809523D01*
X156678571Y-119869047D01*
X156607142Y-119988095D01*
X156607142Y-120285714D01*
X156535714Y-120404761D01*
X157178571Y-120999999D02*
X156178571Y-120999999D01*
X156464285Y-120999999D02*
X156321428Y-121059523D01*
X156250000Y-121119047D01*
X156178571Y-121238095D01*
X156178571Y-121357142D01*
X157178571Y-121773809D02*
X156178571Y-121773809D01*
X156321428Y-121773809D02*
X156250000Y-121833333D01*
X156178571Y-121952380D01*
X156178571Y-122130952D01*
X156250000Y-122249999D01*
X156392857Y-122309523D01*
X157178571Y-122309523D01*
X156392857Y-122309523D02*
X156250000Y-122369047D01*
X156178571Y-122488095D01*
X156178571Y-122666666D01*
X156250000Y-122785714D01*
X156392857Y-122845238D01*
X157178571Y-122845238D01*
D11*
X146428571Y-114653571D02*
X146428571Y-113153571D01*
X145714285Y-113653571D02*
X145714285Y-114653571D01*
X145714285Y-113796428D02*
X145642857Y-113725000D01*
X145500000Y-113653571D01*
X145285714Y-113653571D01*
X145142857Y-113725000D01*
X145071428Y-113867857D01*
X145071428Y-114653571D01*
X143714285Y-113653571D02*
X143714285Y-114867857D01*
X143785714Y-115010714D01*
X143857142Y-115082142D01*
X144000000Y-115153571D01*
X144214285Y-115153571D01*
X144357142Y-115082142D01*
X143714285Y-114582142D02*
X143857142Y-114653571D01*
X144142857Y-114653571D01*
X144285714Y-114582142D01*
X144357142Y-114510714D01*
X144428571Y-114367857D01*
X144428571Y-113939285D01*
X144357142Y-113796428D01*
X144285714Y-113725000D01*
X144142857Y-113653571D01*
X143857142Y-113653571D01*
X143714285Y-113725000D01*
X143000000Y-114510714D02*
X142928571Y-114582142D01*
X143000000Y-114653571D01*
X143071428Y-114582142D01*
X143000000Y-114510714D01*
X143000000Y-114653571D01*
X141214285Y-114225000D02*
X140500000Y-114225000D01*
X141357142Y-114653571D02*
X140857142Y-113153571D01*
X140357142Y-114653571D01*
X139857142Y-114510714D02*
X139785714Y-114582142D01*
X139857142Y-114653571D01*
X139928571Y-114582142D01*
X139857142Y-114510714D01*
X139857142Y-114653571D01*
X138071428Y-114225000D02*
X137357142Y-114225000D01*
X138214285Y-114653571D02*
X137714285Y-113153571D01*
X137214285Y-114653571D01*
X136714285Y-113653571D02*
X136714285Y-114653571D01*
X136714285Y-113796428D02*
X136642857Y-113725000D01*
X136500000Y-113653571D01*
X136285714Y-113653571D01*
X136142857Y-113725000D01*
X136071428Y-113867857D01*
X136071428Y-114653571D01*
X134714285Y-113653571D02*
X134714285Y-114867857D01*
X134785714Y-115010714D01*
X134857142Y-115082142D01*
X135000000Y-115153571D01*
X135214285Y-115153571D01*
X135357142Y-115082142D01*
X134714285Y-114582142D02*
X134857142Y-114653571D01*
X135142857Y-114653571D01*
X135285714Y-114582142D01*
X135357142Y-114510714D01*
X135428571Y-114367857D01*
X135428571Y-113939285D01*
X135357142Y-113796428D01*
X135285714Y-113725000D01*
X135142857Y-113653571D01*
X134857142Y-113653571D01*
X134714285Y-113725000D01*
X133428571Y-114582142D02*
X133571428Y-114653571D01*
X133857142Y-114653571D01*
X134000000Y-114582142D01*
X134071428Y-114439285D01*
X134071428Y-113867857D01*
X134000000Y-113725000D01*
X133857142Y-113653571D01*
X133571428Y-113653571D01*
X133428571Y-113725000D01*
X133357142Y-113867857D01*
X133357142Y-114010714D01*
X134071428Y-114153571D01*
X132714285Y-114653571D02*
X132714285Y-113653571D01*
X132714285Y-113939285D02*
X132642857Y-113796428D01*
X132571428Y-113725000D01*
X132428571Y-113653571D01*
X132285714Y-113653571D01*
X131785714Y-114653571D02*
X131785714Y-113653571D01*
X131785714Y-113796428D02*
X131714285Y-113725000D01*
X131571428Y-113653571D01*
X131357142Y-113653571D01*
X131214285Y-113725000D01*
X131142857Y-113867857D01*
X131142857Y-114653571D01*
X131142857Y-113867857D02*
X131071428Y-113725000D01*
X130928571Y-113653571D01*
X130714285Y-113653571D01*
X130571428Y-113725000D01*
X130500000Y-113867857D01*
X130500000Y-114653571D01*
X129142857Y-114653571D02*
X129142857Y-113867857D01*
X129214285Y-113725000D01*
X129357142Y-113653571D01*
X129642857Y-113653571D01*
X129785714Y-113725000D01*
X129142857Y-114582142D02*
X129285714Y-114653571D01*
X129642857Y-114653571D01*
X129785714Y-114582142D01*
X129857142Y-114439285D01*
X129857142Y-114296428D01*
X129785714Y-114153571D01*
X129642857Y-114082142D01*
X129285714Y-114082142D01*
X129142857Y-114010714D01*
X128571428Y-113653571D02*
X128214285Y-114653571D01*
X127857142Y-113653571D02*
X128214285Y-114653571D01*
X128357142Y-115010714D01*
X128428571Y-115082142D01*
X128571428Y-115153571D01*
X127285714Y-114653571D02*
X127285714Y-113653571D01*
X127285714Y-113939285D02*
X127214285Y-113796428D01*
X127142857Y-113725000D01*
X127000000Y-113653571D01*
X126857142Y-113653571D01*
X140678571Y-117203571D02*
X141535714Y-117203571D01*
X141107142Y-117203571D02*
X141107142Y-115703571D01*
X141250000Y-115917857D01*
X141392857Y-116060714D01*
X141535714Y-116132142D01*
X139750000Y-115703571D02*
X139607142Y-115703571D01*
X139464285Y-115775000D01*
X139392857Y-115846428D01*
X139321428Y-115989285D01*
X139250000Y-116275000D01*
X139250000Y-116632142D01*
X139321428Y-116917857D01*
X139392857Y-117060714D01*
X139464285Y-117132142D01*
X139607142Y-117203571D01*
X139750000Y-117203571D01*
X139892857Y-117132142D01*
X139964285Y-117060714D01*
X140035714Y-116917857D01*
X140107142Y-116632142D01*
X140107142Y-116275000D01*
X140035714Y-115989285D01*
X139964285Y-115846428D01*
X139892857Y-115775000D01*
X139750000Y-115703571D01*
X137535714Y-115632142D02*
X138821428Y-117560714D01*
X137107142Y-115846428D02*
X137035714Y-115775000D01*
X136892857Y-115703571D01*
X136535714Y-115703571D01*
X136392857Y-115775000D01*
X136321428Y-115846428D01*
X136250000Y-115989285D01*
X136250000Y-116132142D01*
X136321428Y-116346428D01*
X137178571Y-117203571D01*
X136250000Y-117203571D01*
X135321428Y-115703571D02*
X135178571Y-115703571D01*
X135035714Y-115775000D01*
X134964285Y-115846428D01*
X134892857Y-115989285D01*
X134821428Y-116275000D01*
X134821428Y-116632142D01*
X134892857Y-116917857D01*
X134964285Y-117060714D01*
X135035714Y-117132142D01*
X135178571Y-117203571D01*
X135321428Y-117203571D01*
X135464285Y-117132142D01*
X135535714Y-117060714D01*
X135607142Y-116917857D01*
X135678571Y-116632142D01*
X135678571Y-116275000D01*
X135607142Y-115989285D01*
X135535714Y-115846428D01*
X135464285Y-115775000D01*
X135321428Y-115703571D01*
X134250000Y-115846428D02*
X134178571Y-115775000D01*
X134035714Y-115703571D01*
X133678571Y-115703571D01*
X133535714Y-115775000D01*
X133464285Y-115846428D01*
X133392857Y-115989285D01*
X133392857Y-116132142D01*
X133464285Y-116346428D01*
X134321428Y-117203571D01*
X133392857Y-117203571D01*
X132464285Y-115703571D02*
X132321428Y-115703571D01*
X132178571Y-115775000D01*
X132107142Y-115846428D01*
X132035714Y-115989285D01*
X131964285Y-116275000D01*
X131964285Y-116632142D01*
X132035714Y-116917857D01*
X132107142Y-117060714D01*
X132178571Y-117132142D01*
X132321428Y-117203571D01*
X132464285Y-117203571D01*
X132607142Y-117132142D01*
X132678571Y-117060714D01*
X132750000Y-116917857D01*
X132821428Y-116632142D01*
X132821428Y-116275000D01*
X132750000Y-115989285D01*
X132678571Y-115846428D01*
X132607142Y-115775000D01*
X132464285Y-115703571D01*
X146535714Y-94403571D02*
X145678571Y-94403571D01*
X146107142Y-95903571D02*
X146107142Y-94403571D01*
X144535714Y-95903571D02*
X144535714Y-95117857D01*
X144607142Y-94975000D01*
X144750000Y-94903571D01*
X145035714Y-94903571D01*
X145178571Y-94975000D01*
X144535714Y-95832142D02*
X144678571Y-95903571D01*
X145035714Y-95903571D01*
X145178571Y-95832142D01*
X145250000Y-95689285D01*
X145250000Y-95546428D01*
X145178571Y-95403571D01*
X145035714Y-95332142D01*
X144678571Y-95332142D01*
X144535714Y-95260714D01*
X143178571Y-94903571D02*
X143178571Y-96117857D01*
X143250000Y-96260714D01*
X143321428Y-96332142D01*
X143464285Y-96403571D01*
X143678571Y-96403571D01*
X143821428Y-96332142D01*
X143178571Y-95832142D02*
X143321428Y-95903571D01*
X143607142Y-95903571D01*
X143750000Y-95832142D01*
X143821428Y-95760714D01*
X143892857Y-95617857D01*
X143892857Y-95189285D01*
X143821428Y-95046428D01*
X143750000Y-94975000D01*
X143607142Y-94903571D01*
X143321428Y-94903571D01*
X143178571Y-94975000D01*
X142464285Y-95332142D02*
X141321428Y-95332142D01*
X139750000Y-95760714D02*
X139821428Y-95832142D01*
X140035714Y-95903571D01*
X140178571Y-95903571D01*
X140392857Y-95832142D01*
X140535714Y-95689285D01*
X140607142Y-95546428D01*
X140678571Y-95260714D01*
X140678571Y-95046428D01*
X140607142Y-94760714D01*
X140535714Y-94617857D01*
X140392857Y-94475000D01*
X140178571Y-94403571D01*
X140035714Y-94403571D01*
X139821428Y-94475000D01*
X139750000Y-94546428D01*
X138892857Y-95903571D02*
X139035714Y-95832142D01*
X139107142Y-95760714D01*
X139178571Y-95617857D01*
X139178571Y-95189285D01*
X139107142Y-95046428D01*
X139035714Y-94975000D01*
X138892857Y-94903571D01*
X138678571Y-94903571D01*
X138535714Y-94975000D01*
X138464285Y-95046428D01*
X138392857Y-95189285D01*
X138392857Y-95617857D01*
X138464285Y-95760714D01*
X138535714Y-95832142D01*
X138678571Y-95903571D01*
X138892857Y-95903571D01*
X137750000Y-94903571D02*
X137750000Y-95903571D01*
X137750000Y-95046428D02*
X137678571Y-94975000D01*
X137535714Y-94903571D01*
X137321428Y-94903571D01*
X137178571Y-94975000D01*
X137107142Y-95117857D01*
X137107142Y-95903571D01*
X136392857Y-94903571D02*
X136392857Y-95903571D01*
X136392857Y-95046428D02*
X136321428Y-94975000D01*
X136178571Y-94903571D01*
X135964285Y-94903571D01*
X135821428Y-94975000D01*
X135750000Y-95117857D01*
X135750000Y-95903571D01*
X134464285Y-95832142D02*
X134607142Y-95903571D01*
X134892857Y-95903571D01*
X135035714Y-95832142D01*
X135107142Y-95689285D01*
X135107142Y-95117857D01*
X135035714Y-94975000D01*
X134892857Y-94903571D01*
X134607142Y-94903571D01*
X134464285Y-94975000D01*
X134392857Y-95117857D01*
X134392857Y-95260714D01*
X135107142Y-95403571D01*
X133107142Y-95832142D02*
X133250000Y-95903571D01*
X133535714Y-95903571D01*
X133678571Y-95832142D01*
X133750000Y-95760714D01*
X133821428Y-95617857D01*
X133821428Y-95189285D01*
X133750000Y-95046428D01*
X133678571Y-94975000D01*
X133535714Y-94903571D01*
X133250000Y-94903571D01*
X133107142Y-94975000D01*
X132678571Y-94903571D02*
X132107142Y-94903571D01*
X132464285Y-94403571D02*
X132464285Y-95689285D01*
X132392857Y-95832142D01*
X132250000Y-95903571D01*
X132107142Y-95903571D01*
X146678571Y-97453571D02*
X146107142Y-97453571D01*
X146464285Y-96953571D02*
X146464285Y-98239285D01*
X146392857Y-98382142D01*
X146250000Y-98453571D01*
X146107142Y-98453571D01*
X145392857Y-98453571D02*
X145535714Y-98382142D01*
X145607142Y-98310714D01*
X145678571Y-98167857D01*
X145678571Y-97739285D01*
X145607142Y-97596428D01*
X145535714Y-97525000D01*
X145392857Y-97453571D01*
X145178571Y-97453571D01*
X145035714Y-97525000D01*
X144964285Y-97596428D01*
X144892857Y-97739285D01*
X144892857Y-98167857D01*
X144964285Y-98310714D01*
X145035714Y-98382142D01*
X145178571Y-98453571D01*
X145392857Y-98453571D01*
X143178571Y-98025000D02*
X142464285Y-98025000D01*
X143321428Y-98453571D02*
X142821428Y-96953571D01*
X142321428Y-98453571D01*
X140964285Y-98453571D02*
X141464285Y-97739285D01*
X141821428Y-98453571D02*
X141821428Y-96953571D01*
X141250000Y-96953571D01*
X141107142Y-97025000D01*
X141035714Y-97096428D01*
X140964285Y-97239285D01*
X140964285Y-97453571D01*
X141035714Y-97596428D01*
X141107142Y-97667857D01*
X141250000Y-97739285D01*
X141821428Y-97739285D01*
X140321428Y-98453571D02*
X140321428Y-96953571D01*
X139821428Y-98025000D01*
X139321428Y-96953571D01*
X139321428Y-98453571D01*
X138607142Y-97882142D02*
X137464285Y-97882142D01*
X136821428Y-97096428D02*
X136750000Y-97025000D01*
X136607142Y-96953571D01*
X136250000Y-96953571D01*
X136107142Y-97025000D01*
X136035714Y-97096428D01*
X135964285Y-97239285D01*
X135964285Y-97382142D01*
X136035714Y-97596428D01*
X136892857Y-98453571D01*
X135964285Y-98453571D01*
X135035714Y-96953571D02*
X134892857Y-96953571D01*
X134750000Y-97025000D01*
X134678571Y-97096428D01*
X134607142Y-97239285D01*
X134535714Y-97525000D01*
X134535714Y-97882142D01*
X134607142Y-98167857D01*
X134678571Y-98310714D01*
X134750000Y-98382142D01*
X134892857Y-98453571D01*
X135035714Y-98453571D01*
X135178571Y-98382142D01*
X135250000Y-98310714D01*
X135321428Y-98167857D01*
X135392857Y-97882142D01*
X135392857Y-97525000D01*
X135321428Y-97239285D01*
X135250000Y-97096428D01*
X135178571Y-97025000D01*
X135035714Y-96953571D01*
X133892857Y-98453571D02*
X133892857Y-96953571D01*
X133321428Y-96953571D01*
X133178571Y-97025000D01*
X133107142Y-97096428D01*
X133035714Y-97239285D01*
X133035714Y-97453571D01*
X133107142Y-97596428D01*
X133178571Y-97667857D01*
X133321428Y-97739285D01*
X133892857Y-97739285D01*
X132392857Y-98453571D02*
X132392857Y-97453571D01*
X132392857Y-96953571D02*
X132464285Y-97025000D01*
X132392857Y-97096428D01*
X132321428Y-97025000D01*
X132392857Y-96953571D01*
X132392857Y-97096428D01*
X131678571Y-97453571D02*
X131678571Y-98453571D01*
X131678571Y-97596428D02*
X131607142Y-97525000D01*
X131464285Y-97453571D01*
X131250000Y-97453571D01*
X131107142Y-97525000D01*
X131035714Y-97667857D01*
X131035714Y-98453571D01*
%LPC*%
D12*
G04 #@! TO.C,J101*
X130000000Y-104000000D03*
D13*
X121110000Y-102090000D03*
D14*
X127460000Y-105270000D03*
X130000000Y-106540000D03*
X127460000Y-107810000D03*
X130000000Y-109080000D03*
X127460000Y-110350000D03*
D13*
X121110000Y-112250000D03*
G04 #@! TD*
D15*
G04 #@! TO.C,J102*
X153190000Y-118610000D03*
X153190000Y-116070000D03*
X153190000Y-113530000D03*
X153190000Y-110990000D03*
X153190000Y-108450000D03*
X153190000Y-105910000D03*
X153190000Y-103370000D03*
X153190000Y-100830000D03*
X153190000Y-98290000D03*
X153190000Y-95750000D03*
X150650000Y-118610000D03*
X150650000Y-116070000D03*
X150650000Y-113530000D03*
X150650000Y-110990000D03*
X150650000Y-108450000D03*
X150650000Y-105910000D03*
X150650000Y-103370000D03*
X150650000Y-100830000D03*
X150650000Y-98290000D03*
G36*
G01*
X149750000Y-96385294D02*
X149750000Y-95114706D01*
G75*
G02*
X150014706Y-94850000I264706J0D01*
G01*
X151285294Y-94850000D01*
G75*
G02*
X151550000Y-95114706I0J-264706D01*
G01*
X151550000Y-96385294D01*
G75*
G02*
X151285294Y-96650000I-264706J0D01*
G01*
X150014706Y-96650000D01*
G75*
G02*
X149750000Y-96385294I0J264706D01*
G01*
G37*
G04 #@! TD*
M02*
