G04 #@! TF.GenerationSoftware,KiCad,Pcbnew,5.1.6*
G04 #@! TF.CreationDate,2020-10-01T15:01:27+02:00*
G04 #@! TF.ProjectId,TagConnect2ARM,54616743-6f6e-46e6-9563-743241524d2e,rev?*
G04 #@! TF.SameCoordinates,Original*
G04 #@! TF.FileFunction,Copper,L1,Top*
G04 #@! TF.FilePolarity,Positive*
%FSLAX46Y46*%
G04 Gerber Fmt 4.6, Leading zero omitted, Abs format (unit mm)*
G04 Created by KiCad (PCBNEW 5.1.6) date 2020-10-01 15:01:27*
%MOMM*%
%LPD*%
G01*
G04 APERTURE LIST*
G04 #@! TA.AperFunction,ComponentPad*
%ADD10R,1.520000X1.520000*%
G04 #@! TD*
G04 #@! TA.AperFunction,ComponentPad*
%ADD11C,1.520000*%
G04 #@! TD*
G04 #@! TA.AperFunction,ComponentPad*
%ADD12C,1.700000*%
G04 #@! TD*
G04 #@! TA.AperFunction,ViaPad*
%ADD13C,1.000000*%
G04 #@! TD*
G04 #@! TA.AperFunction,Conductor*
%ADD14C,1.000000*%
G04 #@! TD*
G04 #@! TA.AperFunction,Conductor*
%ADD15C,0.160000*%
G04 #@! TD*
G04 APERTURE END LIST*
D10*
G04 #@! TO.P,J101,1*
G04 #@! TO.N,/Tag_Connect_Pin_6_SWO*
X130000000Y-104000000D03*
D11*
G04 #@! TO.P,J101,2*
G04 #@! TO.N,/Tag_Connect_Pin_5_GND*
X127460000Y-105270000D03*
G04 #@! TO.P,J101,3*
G04 #@! TO.N,/Tag_Connect_Pin_4_SWCLK*
X130000000Y-106540000D03*
G04 #@! TO.P,J101,4*
G04 #@! TO.N,/Tag_Connect_Pin_3_nRST*
X127460000Y-107810000D03*
G04 #@! TO.P,J101,5*
G04 #@! TO.N,/Tag_Connect_Pin_2_SWDIO*
X130000000Y-109080000D03*
G04 #@! TO.P,J101,6*
G04 #@! TO.N,/Tag_Connect_Pin_1_VTref*
X127460000Y-110350000D03*
G04 #@! TD*
D12*
G04 #@! TO.P,J102,20*
G04 #@! TO.N,/Tag_Connect_Pin_5_GND*
X153190000Y-118610000D03*
G04 #@! TO.P,J102,18*
X153190000Y-116070000D03*
G04 #@! TO.P,J102,16*
X153190000Y-113530000D03*
G04 #@! TO.P,J102,14*
X153190000Y-110990000D03*
G04 #@! TO.P,J102,12*
X153190000Y-108450000D03*
G04 #@! TO.P,J102,10*
X153190000Y-105910000D03*
G04 #@! TO.P,J102,8*
X153190000Y-103370000D03*
G04 #@! TO.P,J102,6*
X153190000Y-100830000D03*
G04 #@! TO.P,J102,4*
X153190000Y-98290000D03*
G04 #@! TO.P,J102,2*
G04 #@! TO.N,N/C*
X153190000Y-95750000D03*
G04 #@! TO.P,J102,19*
X150650000Y-118610000D03*
G04 #@! TO.P,J102,17*
X150650000Y-116070000D03*
G04 #@! TO.P,J102,15*
G04 #@! TO.N,/Tag_Connect_Pin_3_nRST*
X150650000Y-113530000D03*
G04 #@! TO.P,J102,13*
G04 #@! TO.N,/Tag_Connect_Pin_6_SWO*
X150650000Y-110990000D03*
G04 #@! TO.P,J102,11*
G04 #@! TO.N,N/C*
X150650000Y-108450000D03*
G04 #@! TO.P,J102,9*
G04 #@! TO.N,/Tag_Connect_Pin_4_SWCLK*
X150650000Y-105910000D03*
G04 #@! TO.P,J102,7*
G04 #@! TO.N,/Tag_Connect_Pin_2_SWDIO*
X150650000Y-103370000D03*
G04 #@! TO.P,J102,5*
G04 #@! TO.N,N/C*
X150650000Y-100830000D03*
G04 #@! TO.P,J102,3*
X150650000Y-98290000D03*
G04 #@! TO.P,J102,1*
G04 #@! TO.N,/Tag_Connect_Pin_1_VTref*
G04 #@! TA.AperFunction,ComponentPad*
G36*
G01*
X149800000Y-96350000D02*
X149800000Y-95150000D01*
G75*
G02*
X150050000Y-94900000I250000J0D01*
G01*
X151250000Y-94900000D01*
G75*
G02*
X151500000Y-95150000I0J-250000D01*
G01*
X151500000Y-96350000D01*
G75*
G02*
X151250000Y-96600000I-250000J0D01*
G01*
X150050000Y-96600000D01*
G75*
G02*
X149800000Y-96350000I0J250000D01*
G01*
G37*
G04 #@! TD.AperFunction*
G04 #@! TD*
D13*
G04 #@! TO.N,/Tag_Connect_Pin_1_VTref*
X136000000Y-108000000D03*
X143000000Y-101000000D03*
X135000000Y-109000000D03*
X141000000Y-101000000D03*
G04 #@! TO.N,/Tag_Connect_Pin_2_SWDIO*
X141000000Y-105000000D03*
X143000000Y-105000000D03*
G04 #@! TO.N,/Tag_Connect_Pin_6_SWO*
X143000000Y-103000000D03*
X141000000Y-103000000D03*
G04 #@! TD*
D14*
G04 #@! TO.N,/Tag_Connect_Pin_1_VTref*
X128219999Y-111109999D02*
X131890001Y-111109999D01*
X127460000Y-110350000D02*
X128219999Y-111109999D01*
X131890001Y-111109999D02*
X132890001Y-111109999D01*
X132890001Y-111109999D02*
X136000000Y-108000000D01*
X148250000Y-95750000D02*
X150650000Y-95750000D01*
X143000000Y-101000000D02*
X148250000Y-95750000D01*
X143000000Y-101000000D02*
X141000000Y-101000000D01*
G04 #@! TO.N,/Tag_Connect_Pin_3_nRST*
X127460000Y-107810000D02*
X125000000Y-110270000D01*
X125000000Y-110270000D02*
X125000000Y-112000000D01*
X126530000Y-113530000D02*
X150650000Y-113530000D01*
X125000000Y-112000000D02*
X126530000Y-113530000D01*
G04 #@! TO.N,/Tag_Connect_Pin_2_SWDIO*
X149020000Y-105000000D02*
X150650000Y-103370000D01*
X141000000Y-105000000D02*
X149020000Y-105000000D01*
G04 #@! TO.N,/Tag_Connect_Pin_4_SWCLK*
X150020000Y-106540000D02*
X150650000Y-105910000D01*
X130000000Y-106540000D02*
X150020000Y-106540000D01*
G04 #@! TO.N,/Tag_Connect_Pin_6_SWO*
X130000000Y-104000000D02*
X138000000Y-104000000D01*
X138000000Y-104000000D02*
X139000000Y-103000000D01*
X139000000Y-103000000D02*
X141000000Y-103000000D01*
X141000000Y-103000000D02*
X143000000Y-103000000D01*
G04 #@! TD*
D15*
G04 #@! TO.N,/Tag_Connect_Pin_5_GND*
G36*
X158700000Y-125700000D02*
G01*
X145050125Y-125700000D01*
X124100901Y-118498705D01*
X149520000Y-118498705D01*
X149520000Y-118721295D01*
X149563425Y-118939609D01*
X149648607Y-119145256D01*
X149772271Y-119330333D01*
X149929667Y-119487729D01*
X150114744Y-119611393D01*
X150320391Y-119696575D01*
X150538705Y-119740000D01*
X150761295Y-119740000D01*
X150979609Y-119696575D01*
X151185256Y-119611393D01*
X151370333Y-119487729D01*
X151393310Y-119464752D01*
X152434243Y-119464752D01*
X152521324Y-119649445D01*
X152736957Y-119759925D01*
X152970001Y-119826213D01*
X153211500Y-119845764D01*
X153452173Y-119817825D01*
X153682770Y-119743470D01*
X153858676Y-119649445D01*
X153945757Y-119464752D01*
X153190000Y-118708995D01*
X152434243Y-119464752D01*
X151393310Y-119464752D01*
X151527729Y-119330333D01*
X151651393Y-119145256D01*
X151736575Y-118939609D01*
X151780000Y-118721295D01*
X151780000Y-118631500D01*
X151954236Y-118631500D01*
X151982175Y-118872173D01*
X152056530Y-119102770D01*
X152150555Y-119278676D01*
X152335248Y-119365757D01*
X153091005Y-118610000D01*
X153288995Y-118610000D01*
X154044752Y-119365757D01*
X154229445Y-119278676D01*
X154339925Y-119063043D01*
X154406213Y-118829999D01*
X154425764Y-118588500D01*
X154397825Y-118347827D01*
X154323470Y-118117230D01*
X154229445Y-117941324D01*
X154044752Y-117854243D01*
X153288995Y-118610000D01*
X153091005Y-118610000D01*
X152335248Y-117854243D01*
X152150555Y-117941324D01*
X152040075Y-118156957D01*
X151973787Y-118390001D01*
X151954236Y-118631500D01*
X151780000Y-118631500D01*
X151780000Y-118498705D01*
X151736575Y-118280391D01*
X151651393Y-118074744D01*
X151527729Y-117889667D01*
X151393310Y-117755248D01*
X152434243Y-117755248D01*
X153190000Y-118511005D01*
X153945757Y-117755248D01*
X153858676Y-117570555D01*
X153643043Y-117460075D01*
X153409999Y-117393787D01*
X153168500Y-117374236D01*
X152927827Y-117402175D01*
X152697230Y-117476530D01*
X152521324Y-117570555D01*
X152434243Y-117755248D01*
X151393310Y-117755248D01*
X151370333Y-117732271D01*
X151185256Y-117608607D01*
X150979609Y-117523425D01*
X150761295Y-117480000D01*
X150538705Y-117480000D01*
X150320391Y-117523425D01*
X150114744Y-117608607D01*
X149929667Y-117732271D01*
X149772271Y-117889667D01*
X149648607Y-118074744D01*
X149563425Y-118280391D01*
X149520000Y-118498705D01*
X124100901Y-118498705D01*
X116711809Y-115958705D01*
X149520000Y-115958705D01*
X149520000Y-116181295D01*
X149563425Y-116399609D01*
X149648607Y-116605256D01*
X149772271Y-116790333D01*
X149929667Y-116947729D01*
X150114744Y-117071393D01*
X150320391Y-117156575D01*
X150538705Y-117200000D01*
X150761295Y-117200000D01*
X150979609Y-117156575D01*
X151185256Y-117071393D01*
X151370333Y-116947729D01*
X151393310Y-116924752D01*
X152434243Y-116924752D01*
X152521324Y-117109445D01*
X152736957Y-117219925D01*
X152970001Y-117286213D01*
X153211500Y-117305764D01*
X153452173Y-117277825D01*
X153682770Y-117203470D01*
X153858676Y-117109445D01*
X153945757Y-116924752D01*
X153190000Y-116168995D01*
X152434243Y-116924752D01*
X151393310Y-116924752D01*
X151527729Y-116790333D01*
X151651393Y-116605256D01*
X151736575Y-116399609D01*
X151780000Y-116181295D01*
X151780000Y-116091500D01*
X151954236Y-116091500D01*
X151982175Y-116332173D01*
X152056530Y-116562770D01*
X152150555Y-116738676D01*
X152335248Y-116825757D01*
X153091005Y-116070000D01*
X153288995Y-116070000D01*
X154044752Y-116825757D01*
X154229445Y-116738676D01*
X154339925Y-116523043D01*
X154406213Y-116289999D01*
X154425764Y-116048500D01*
X154397825Y-115807827D01*
X154323470Y-115577230D01*
X154229445Y-115401324D01*
X154044752Y-115314243D01*
X153288995Y-116070000D01*
X153091005Y-116070000D01*
X152335248Y-115314243D01*
X152150555Y-115401324D01*
X152040075Y-115616957D01*
X151973787Y-115850001D01*
X151954236Y-116091500D01*
X151780000Y-116091500D01*
X151780000Y-115958705D01*
X151736575Y-115740391D01*
X151651393Y-115534744D01*
X151527729Y-115349667D01*
X151393310Y-115215248D01*
X152434243Y-115215248D01*
X153190000Y-115971005D01*
X153945757Y-115215248D01*
X153858676Y-115030555D01*
X153643043Y-114920075D01*
X153409999Y-114853787D01*
X153168500Y-114834236D01*
X152927827Y-114862175D01*
X152697230Y-114936530D01*
X152521324Y-115030555D01*
X152434243Y-115215248D01*
X151393310Y-115215248D01*
X151370333Y-115192271D01*
X151185256Y-115068607D01*
X150979609Y-114983425D01*
X150761295Y-114940000D01*
X150538705Y-114940000D01*
X150320391Y-114983425D01*
X150114744Y-115068607D01*
X149929667Y-115192271D01*
X149772271Y-115349667D01*
X149648607Y-115534744D01*
X149563425Y-115740391D01*
X149520000Y-115958705D01*
X116711809Y-115958705D01*
X113300000Y-114785896D01*
X113300000Y-112062374D01*
X119205000Y-112062374D01*
X119205000Y-112437626D01*
X119278209Y-112805668D01*
X119421811Y-113152356D01*
X119630290Y-113464366D01*
X119895634Y-113729710D01*
X120207644Y-113938189D01*
X120554332Y-114081791D01*
X120922374Y-114155000D01*
X121297626Y-114155000D01*
X121665668Y-114081791D01*
X122012356Y-113938189D01*
X122324366Y-113729710D01*
X122589710Y-113464366D01*
X122798189Y-113152356D01*
X122941791Y-112805668D01*
X123015000Y-112437626D01*
X123015000Y-112062374D01*
X122941791Y-111694332D01*
X122798189Y-111347644D01*
X122589710Y-111035634D01*
X122324366Y-110770290D01*
X122012356Y-110561811D01*
X121665668Y-110418209D01*
X121297626Y-110345000D01*
X120922374Y-110345000D01*
X120554332Y-110418209D01*
X120207644Y-110561811D01*
X119895634Y-110770290D01*
X119630290Y-111035634D01*
X119421811Y-111347644D01*
X119278209Y-111694332D01*
X119205000Y-112062374D01*
X113300000Y-112062374D01*
X113300000Y-110270000D01*
X124216226Y-110270000D01*
X124220000Y-110308318D01*
X124220001Y-111961672D01*
X124216226Y-112000000D01*
X124231286Y-112152906D01*
X124275888Y-112299937D01*
X124329373Y-112400000D01*
X124348317Y-112435442D01*
X124445789Y-112554212D01*
X124475551Y-112578637D01*
X125951363Y-114054450D01*
X125975788Y-114084212D01*
X126094558Y-114181684D01*
X126230063Y-114254113D01*
X126377093Y-114298714D01*
X126530000Y-114313774D01*
X126568318Y-114310000D01*
X149831938Y-114310000D01*
X149929667Y-114407729D01*
X150114744Y-114531393D01*
X150320391Y-114616575D01*
X150538705Y-114660000D01*
X150761295Y-114660000D01*
X150979609Y-114616575D01*
X151185256Y-114531393D01*
X151370333Y-114407729D01*
X151393310Y-114384752D01*
X152434243Y-114384752D01*
X152521324Y-114569445D01*
X152736957Y-114679925D01*
X152970001Y-114746213D01*
X153211500Y-114765764D01*
X153452173Y-114737825D01*
X153682770Y-114663470D01*
X153858676Y-114569445D01*
X153945757Y-114384752D01*
X153190000Y-113628995D01*
X152434243Y-114384752D01*
X151393310Y-114384752D01*
X151527729Y-114250333D01*
X151651393Y-114065256D01*
X151736575Y-113859609D01*
X151780000Y-113641295D01*
X151780000Y-113551500D01*
X151954236Y-113551500D01*
X151982175Y-113792173D01*
X152056530Y-114022770D01*
X152150555Y-114198676D01*
X152335248Y-114285757D01*
X153091005Y-113530000D01*
X153288995Y-113530000D01*
X154044752Y-114285757D01*
X154229445Y-114198676D01*
X154339925Y-113983043D01*
X154406213Y-113749999D01*
X154425764Y-113508500D01*
X154397825Y-113267827D01*
X154323470Y-113037230D01*
X154229445Y-112861324D01*
X154044752Y-112774243D01*
X153288995Y-113530000D01*
X153091005Y-113530000D01*
X152335248Y-112774243D01*
X152150555Y-112861324D01*
X152040075Y-113076957D01*
X151973787Y-113310001D01*
X151954236Y-113551500D01*
X151780000Y-113551500D01*
X151780000Y-113418705D01*
X151736575Y-113200391D01*
X151651393Y-112994744D01*
X151527729Y-112809667D01*
X151393310Y-112675248D01*
X152434243Y-112675248D01*
X153190000Y-113431005D01*
X153945757Y-112675248D01*
X153858676Y-112490555D01*
X153643043Y-112380075D01*
X153409999Y-112313787D01*
X153168500Y-112294236D01*
X152927827Y-112322175D01*
X152697230Y-112396530D01*
X152521324Y-112490555D01*
X152434243Y-112675248D01*
X151393310Y-112675248D01*
X151370333Y-112652271D01*
X151185256Y-112528607D01*
X150979609Y-112443425D01*
X150761295Y-112400000D01*
X150538705Y-112400000D01*
X150320391Y-112443425D01*
X150114744Y-112528607D01*
X149929667Y-112652271D01*
X149831938Y-112750000D01*
X126853087Y-112750000D01*
X125780000Y-111676914D01*
X125780000Y-110593086D01*
X126583980Y-109789106D01*
X126538364Y-109857375D01*
X126459967Y-110046643D01*
X126420000Y-110247569D01*
X126420000Y-110452431D01*
X126459967Y-110653357D01*
X126538364Y-110842625D01*
X126652179Y-111012961D01*
X126797039Y-111157821D01*
X126967375Y-111271636D01*
X127156643Y-111350033D01*
X127357569Y-111390000D01*
X127396913Y-111390000D01*
X127641361Y-111634448D01*
X127665787Y-111664211D01*
X127695549Y-111688636D01*
X127695550Y-111688637D01*
X127709473Y-111700063D01*
X127784557Y-111761683D01*
X127920062Y-111834112D01*
X128030883Y-111867729D01*
X128067092Y-111878713D01*
X128219999Y-111893773D01*
X128258317Y-111889999D01*
X132851683Y-111889999D01*
X132890001Y-111893773D01*
X132928319Y-111889999D01*
X133042908Y-111878713D01*
X133189938Y-111834112D01*
X133325443Y-111761683D01*
X133444213Y-111664211D01*
X133468643Y-111634443D01*
X134224381Y-110878705D01*
X149520000Y-110878705D01*
X149520000Y-111101295D01*
X149563425Y-111319609D01*
X149648607Y-111525256D01*
X149772271Y-111710333D01*
X149929667Y-111867729D01*
X150114744Y-111991393D01*
X150320391Y-112076575D01*
X150538705Y-112120000D01*
X150761295Y-112120000D01*
X150979609Y-112076575D01*
X151185256Y-111991393D01*
X151370333Y-111867729D01*
X151393310Y-111844752D01*
X152434243Y-111844752D01*
X152521324Y-112029445D01*
X152736957Y-112139925D01*
X152970001Y-112206213D01*
X153211500Y-112225764D01*
X153452173Y-112197825D01*
X153682770Y-112123470D01*
X153858676Y-112029445D01*
X153945757Y-111844752D01*
X153190000Y-111088995D01*
X152434243Y-111844752D01*
X151393310Y-111844752D01*
X151527729Y-111710333D01*
X151651393Y-111525256D01*
X151736575Y-111319609D01*
X151780000Y-111101295D01*
X151780000Y-111011500D01*
X151954236Y-111011500D01*
X151982175Y-111252173D01*
X152056530Y-111482770D01*
X152150555Y-111658676D01*
X152335248Y-111745757D01*
X153091005Y-110990000D01*
X153288995Y-110990000D01*
X154044752Y-111745757D01*
X154229445Y-111658676D01*
X154339925Y-111443043D01*
X154406213Y-111209999D01*
X154425764Y-110968500D01*
X154397825Y-110727827D01*
X154323470Y-110497230D01*
X154229445Y-110321324D01*
X154044752Y-110234243D01*
X153288995Y-110990000D01*
X153091005Y-110990000D01*
X152335248Y-110234243D01*
X152150555Y-110321324D01*
X152040075Y-110536957D01*
X151973787Y-110770001D01*
X151954236Y-111011500D01*
X151780000Y-111011500D01*
X151780000Y-110878705D01*
X151736575Y-110660391D01*
X151651393Y-110454744D01*
X151527729Y-110269667D01*
X151393310Y-110135248D01*
X152434243Y-110135248D01*
X153190000Y-110891005D01*
X153945757Y-110135248D01*
X153858676Y-109950555D01*
X153643043Y-109840075D01*
X153409999Y-109773787D01*
X153168500Y-109754236D01*
X152927827Y-109782175D01*
X152697230Y-109856530D01*
X152521324Y-109950555D01*
X152434243Y-110135248D01*
X151393310Y-110135248D01*
X151370333Y-110112271D01*
X151185256Y-109988607D01*
X150979609Y-109903425D01*
X150761295Y-109860000D01*
X150538705Y-109860000D01*
X150320391Y-109903425D01*
X150114744Y-109988607D01*
X149929667Y-110112271D01*
X149772271Y-110269667D01*
X149648607Y-110454744D01*
X149563425Y-110660391D01*
X149520000Y-110878705D01*
X134224381Y-110878705D01*
X136578638Y-108524449D01*
X136578643Y-108524443D01*
X136605865Y-108497221D01*
X136627255Y-108465209D01*
X136651684Y-108435442D01*
X136669834Y-108401486D01*
X136691227Y-108369469D01*
X136703969Y-108338705D01*
X149520000Y-108338705D01*
X149520000Y-108561295D01*
X149563425Y-108779609D01*
X149648607Y-108985256D01*
X149772271Y-109170333D01*
X149929667Y-109327729D01*
X150114744Y-109451393D01*
X150320391Y-109536575D01*
X150538705Y-109580000D01*
X150761295Y-109580000D01*
X150979609Y-109536575D01*
X151185256Y-109451393D01*
X151370333Y-109327729D01*
X151393310Y-109304752D01*
X152434243Y-109304752D01*
X152521324Y-109489445D01*
X152736957Y-109599925D01*
X152970001Y-109666213D01*
X153211500Y-109685764D01*
X153452173Y-109657825D01*
X153682770Y-109583470D01*
X153858676Y-109489445D01*
X153945757Y-109304752D01*
X153190000Y-108548995D01*
X152434243Y-109304752D01*
X151393310Y-109304752D01*
X151527729Y-109170333D01*
X151651393Y-108985256D01*
X151736575Y-108779609D01*
X151780000Y-108561295D01*
X151780000Y-108471500D01*
X151954236Y-108471500D01*
X151982175Y-108712173D01*
X152056530Y-108942770D01*
X152150555Y-109118676D01*
X152335248Y-109205757D01*
X153091005Y-108450000D01*
X153288995Y-108450000D01*
X154044752Y-109205757D01*
X154229445Y-109118676D01*
X154339925Y-108903043D01*
X154406213Y-108669999D01*
X154425764Y-108428500D01*
X154397825Y-108187827D01*
X154323470Y-107957230D01*
X154229445Y-107781324D01*
X154044752Y-107694243D01*
X153288995Y-108450000D01*
X153091005Y-108450000D01*
X152335248Y-107694243D01*
X152150555Y-107781324D01*
X152040075Y-107996957D01*
X151973787Y-108230001D01*
X151954236Y-108471500D01*
X151780000Y-108471500D01*
X151780000Y-108338705D01*
X151736575Y-108120391D01*
X151651393Y-107914744D01*
X151527729Y-107729667D01*
X151393310Y-107595248D01*
X152434243Y-107595248D01*
X153190000Y-108351005D01*
X153945757Y-107595248D01*
X153858676Y-107410555D01*
X153643043Y-107300075D01*
X153409999Y-107233787D01*
X153168500Y-107214236D01*
X152927827Y-107242175D01*
X152697230Y-107316530D01*
X152521324Y-107410555D01*
X152434243Y-107595248D01*
X151393310Y-107595248D01*
X151370333Y-107572271D01*
X151185256Y-107448607D01*
X150979609Y-107363425D01*
X150761295Y-107320000D01*
X150538705Y-107320000D01*
X150320391Y-107363425D01*
X150114744Y-107448607D01*
X149929667Y-107572271D01*
X149772271Y-107729667D01*
X149648607Y-107914744D01*
X149563425Y-108120391D01*
X149520000Y-108338705D01*
X136703969Y-108338705D01*
X136705964Y-108333891D01*
X136724112Y-108299938D01*
X136735288Y-108263097D01*
X136750025Y-108227518D01*
X136757537Y-108189751D01*
X136768714Y-108152907D01*
X136772488Y-108114588D01*
X136780000Y-108076823D01*
X136780000Y-108038318D01*
X136783774Y-108000000D01*
X136780000Y-107961682D01*
X136780000Y-107923177D01*
X136772488Y-107885411D01*
X136768714Y-107847094D01*
X136757538Y-107810252D01*
X136750025Y-107772482D01*
X136735287Y-107736901D01*
X136724112Y-107700063D01*
X136705966Y-107666114D01*
X136691227Y-107630531D01*
X136669831Y-107598510D01*
X136651684Y-107564559D01*
X136627258Y-107534796D01*
X136605865Y-107502779D01*
X136578641Y-107475555D01*
X136554212Y-107445788D01*
X136524445Y-107421359D01*
X136497221Y-107394135D01*
X136465204Y-107372742D01*
X136435441Y-107348316D01*
X136401490Y-107330169D01*
X136386271Y-107320000D01*
X149981682Y-107320000D01*
X150020000Y-107323774D01*
X150058318Y-107320000D01*
X150172907Y-107308714D01*
X150319937Y-107264113D01*
X150455442Y-107191684D01*
X150574212Y-107094212D01*
X150598641Y-107064445D01*
X150623086Y-107040000D01*
X150761295Y-107040000D01*
X150979609Y-106996575D01*
X151185256Y-106911393D01*
X151370333Y-106787729D01*
X151393310Y-106764752D01*
X152434243Y-106764752D01*
X152521324Y-106949445D01*
X152736957Y-107059925D01*
X152970001Y-107126213D01*
X153211500Y-107145764D01*
X153452173Y-107117825D01*
X153682770Y-107043470D01*
X153858676Y-106949445D01*
X153945757Y-106764752D01*
X153190000Y-106008995D01*
X152434243Y-106764752D01*
X151393310Y-106764752D01*
X151527729Y-106630333D01*
X151651393Y-106445256D01*
X151736575Y-106239609D01*
X151780000Y-106021295D01*
X151780000Y-105931500D01*
X151954236Y-105931500D01*
X151982175Y-106172173D01*
X152056530Y-106402770D01*
X152150555Y-106578676D01*
X152335248Y-106665757D01*
X153091005Y-105910000D01*
X153288995Y-105910000D01*
X154044752Y-106665757D01*
X154229445Y-106578676D01*
X154339925Y-106363043D01*
X154406213Y-106129999D01*
X154425764Y-105888500D01*
X154397825Y-105647827D01*
X154323470Y-105417230D01*
X154229445Y-105241324D01*
X154044752Y-105154243D01*
X153288995Y-105910000D01*
X153091005Y-105910000D01*
X152335248Y-105154243D01*
X152150555Y-105241324D01*
X152040075Y-105456957D01*
X151973787Y-105690001D01*
X151954236Y-105931500D01*
X151780000Y-105931500D01*
X151780000Y-105798705D01*
X151736575Y-105580391D01*
X151651393Y-105374744D01*
X151527729Y-105189667D01*
X151393310Y-105055248D01*
X152434243Y-105055248D01*
X153190000Y-105811005D01*
X153945757Y-105055248D01*
X153858676Y-104870555D01*
X153643043Y-104760075D01*
X153409999Y-104693787D01*
X153168500Y-104674236D01*
X152927827Y-104702175D01*
X152697230Y-104776530D01*
X152521324Y-104870555D01*
X152434243Y-105055248D01*
X151393310Y-105055248D01*
X151370333Y-105032271D01*
X151185256Y-104908607D01*
X150979609Y-104823425D01*
X150761295Y-104780000D01*
X150538705Y-104780000D01*
X150320391Y-104823425D01*
X150285003Y-104838083D01*
X150623087Y-104500000D01*
X150761295Y-104500000D01*
X150979609Y-104456575D01*
X151185256Y-104371393D01*
X151370333Y-104247729D01*
X151393310Y-104224752D01*
X152434243Y-104224752D01*
X152521324Y-104409445D01*
X152736957Y-104519925D01*
X152970001Y-104586213D01*
X153211500Y-104605764D01*
X153452173Y-104577825D01*
X153682770Y-104503470D01*
X153858676Y-104409445D01*
X153945757Y-104224752D01*
X153190000Y-103468995D01*
X152434243Y-104224752D01*
X151393310Y-104224752D01*
X151527729Y-104090333D01*
X151651393Y-103905256D01*
X151736575Y-103699609D01*
X151780000Y-103481295D01*
X151780000Y-103391500D01*
X151954236Y-103391500D01*
X151982175Y-103632173D01*
X152056530Y-103862770D01*
X152150555Y-104038676D01*
X152335248Y-104125757D01*
X153091005Y-103370000D01*
X153288995Y-103370000D01*
X154044752Y-104125757D01*
X154229445Y-104038676D01*
X154339925Y-103823043D01*
X154406213Y-103589999D01*
X154425764Y-103348500D01*
X154397825Y-103107827D01*
X154323470Y-102877230D01*
X154229445Y-102701324D01*
X154044752Y-102614243D01*
X153288995Y-103370000D01*
X153091005Y-103370000D01*
X152335248Y-102614243D01*
X152150555Y-102701324D01*
X152040075Y-102916957D01*
X151973787Y-103150001D01*
X151954236Y-103391500D01*
X151780000Y-103391500D01*
X151780000Y-103258705D01*
X151736575Y-103040391D01*
X151651393Y-102834744D01*
X151527729Y-102649667D01*
X151393310Y-102515248D01*
X152434243Y-102515248D01*
X153190000Y-103271005D01*
X153945757Y-102515248D01*
X153858676Y-102330555D01*
X153643043Y-102220075D01*
X153409999Y-102153787D01*
X153168500Y-102134236D01*
X152927827Y-102162175D01*
X152697230Y-102236530D01*
X152521324Y-102330555D01*
X152434243Y-102515248D01*
X151393310Y-102515248D01*
X151370333Y-102492271D01*
X151185256Y-102368607D01*
X150979609Y-102283425D01*
X150761295Y-102240000D01*
X150538705Y-102240000D01*
X150320391Y-102283425D01*
X150114744Y-102368607D01*
X149929667Y-102492271D01*
X149772271Y-102649667D01*
X149648607Y-102834744D01*
X149563425Y-103040391D01*
X149520000Y-103258705D01*
X149520000Y-103396913D01*
X148696914Y-104220000D01*
X140923177Y-104220000D01*
X140885412Y-104227512D01*
X140847093Y-104231286D01*
X140810247Y-104242463D01*
X140772482Y-104249975D01*
X140736908Y-104264710D01*
X140700063Y-104275887D01*
X140666106Y-104294037D01*
X140630531Y-104308773D01*
X140598515Y-104330165D01*
X140564558Y-104348316D01*
X140534792Y-104372745D01*
X140502779Y-104394135D01*
X140475556Y-104421358D01*
X140445788Y-104445788D01*
X140421358Y-104475556D01*
X140394135Y-104502779D01*
X140372745Y-104534792D01*
X140348316Y-104564558D01*
X140330165Y-104598515D01*
X140308773Y-104630531D01*
X140294037Y-104666106D01*
X140275887Y-104700063D01*
X140264710Y-104736908D01*
X140249975Y-104772482D01*
X140242463Y-104810247D01*
X140231286Y-104847093D01*
X140227512Y-104885412D01*
X140220000Y-104923177D01*
X140220000Y-104961682D01*
X140216226Y-105000000D01*
X140220000Y-105038318D01*
X140220000Y-105076823D01*
X140227512Y-105114588D01*
X140231286Y-105152907D01*
X140242463Y-105189753D01*
X140249975Y-105227518D01*
X140264710Y-105263092D01*
X140275887Y-105299937D01*
X140294037Y-105333894D01*
X140308773Y-105369469D01*
X140330165Y-105401485D01*
X140348316Y-105435442D01*
X140372745Y-105465208D01*
X140394135Y-105497221D01*
X140421358Y-105524444D01*
X140445788Y-105554212D01*
X140475556Y-105578642D01*
X140502779Y-105605865D01*
X140534792Y-105627255D01*
X140564558Y-105651684D01*
X140598515Y-105669835D01*
X140630531Y-105691227D01*
X140666106Y-105705963D01*
X140700063Y-105724113D01*
X140736908Y-105735290D01*
X140772482Y-105750025D01*
X140810247Y-105757537D01*
X140818367Y-105760000D01*
X130690782Y-105760000D01*
X130662961Y-105732179D01*
X130492625Y-105618364D01*
X130303357Y-105539967D01*
X130102431Y-105500000D01*
X129897569Y-105500000D01*
X129696643Y-105539967D01*
X129507375Y-105618364D01*
X129337039Y-105732179D01*
X129192179Y-105877039D01*
X129078364Y-106047375D01*
X128999967Y-106236643D01*
X128960000Y-106437569D01*
X128960000Y-106642431D01*
X128999967Y-106843357D01*
X129078364Y-107032625D01*
X129192179Y-107202961D01*
X129337039Y-107347821D01*
X129507375Y-107461636D01*
X129696643Y-107540033D01*
X129897569Y-107580000D01*
X130102431Y-107580000D01*
X130303357Y-107540033D01*
X130492625Y-107461636D01*
X130662961Y-107347821D01*
X130690782Y-107320000D01*
X135613729Y-107320000D01*
X135598514Y-107330166D01*
X135564558Y-107348316D01*
X135534791Y-107372745D01*
X135502779Y-107394135D01*
X135475557Y-107421357D01*
X135475551Y-107421362D01*
X132566915Y-110329999D01*
X128543086Y-110329999D01*
X128500000Y-110286913D01*
X128500000Y-110247569D01*
X128460033Y-110046643D01*
X128381636Y-109857375D01*
X128267821Y-109687039D01*
X128122961Y-109542179D01*
X127952625Y-109428364D01*
X127763357Y-109349967D01*
X127562431Y-109310000D01*
X127357569Y-109310000D01*
X127156643Y-109349967D01*
X126967375Y-109428364D01*
X126899106Y-109473980D01*
X127395517Y-108977569D01*
X128960000Y-108977569D01*
X128960000Y-109182431D01*
X128999967Y-109383357D01*
X129078364Y-109572625D01*
X129192179Y-109742961D01*
X129337039Y-109887821D01*
X129507375Y-110001636D01*
X129696643Y-110080033D01*
X129897569Y-110120000D01*
X130102431Y-110120000D01*
X130303357Y-110080033D01*
X130492625Y-110001636D01*
X130662961Y-109887821D01*
X130807821Y-109742961D01*
X130921636Y-109572625D01*
X131000033Y-109383357D01*
X131040000Y-109182431D01*
X131040000Y-108977569D01*
X131000033Y-108776643D01*
X130921636Y-108587375D01*
X130807821Y-108417039D01*
X130662961Y-108272179D01*
X130492625Y-108158364D01*
X130303357Y-108079967D01*
X130102431Y-108040000D01*
X129897569Y-108040000D01*
X129696643Y-108079967D01*
X129507375Y-108158364D01*
X129337039Y-108272179D01*
X129192179Y-108417039D01*
X129078364Y-108587375D01*
X128999967Y-108776643D01*
X128960000Y-108977569D01*
X127395517Y-108977569D01*
X127523086Y-108850000D01*
X127562431Y-108850000D01*
X127763357Y-108810033D01*
X127952625Y-108731636D01*
X128122961Y-108617821D01*
X128267821Y-108472961D01*
X128381636Y-108302625D01*
X128460033Y-108113357D01*
X128500000Y-107912431D01*
X128500000Y-107707569D01*
X128460033Y-107506643D01*
X128381636Y-107317375D01*
X128267821Y-107147039D01*
X128122961Y-107002179D01*
X127952625Y-106888364D01*
X127763357Y-106809967D01*
X127562431Y-106770000D01*
X127357569Y-106770000D01*
X127156643Y-106809967D01*
X126967375Y-106888364D01*
X126797039Y-107002179D01*
X126652179Y-107147039D01*
X126538364Y-107317375D01*
X126459967Y-107506643D01*
X126420000Y-107707569D01*
X126420000Y-107746914D01*
X124475556Y-109691358D01*
X124445788Y-109715788D01*
X124348316Y-109834559D01*
X124275887Y-109970064D01*
X124266310Y-110001636D01*
X124231286Y-110117094D01*
X124216226Y-110270000D01*
X113300000Y-110270000D01*
X113300000Y-106060673D01*
X126768322Y-106060673D01*
X126844572Y-106236155D01*
X127044884Y-106337655D01*
X127261150Y-106398125D01*
X127485058Y-106415242D01*
X127708001Y-106388348D01*
X127921415Y-106318477D01*
X128075428Y-106236155D01*
X128151678Y-106060673D01*
X127460000Y-105368995D01*
X126768322Y-106060673D01*
X113300000Y-106060673D01*
X113300000Y-105295058D01*
X126314758Y-105295058D01*
X126341652Y-105518001D01*
X126411523Y-105731415D01*
X126493845Y-105885428D01*
X126669327Y-105961678D01*
X127361005Y-105270000D01*
X127558995Y-105270000D01*
X128250673Y-105961678D01*
X128426155Y-105885428D01*
X128527655Y-105685116D01*
X128588125Y-105468850D01*
X128605242Y-105244942D01*
X128578348Y-105021999D01*
X128508477Y-104808585D01*
X128426155Y-104654572D01*
X128250673Y-104578322D01*
X127558995Y-105270000D01*
X127361005Y-105270000D01*
X126669327Y-104578322D01*
X126493845Y-104654572D01*
X126392345Y-104854884D01*
X126331875Y-105071150D01*
X126314758Y-105295058D01*
X113300000Y-105295058D01*
X113300000Y-104479327D01*
X126768322Y-104479327D01*
X127460000Y-105171005D01*
X128151678Y-104479327D01*
X128075428Y-104303845D01*
X127875116Y-104202345D01*
X127658850Y-104141875D01*
X127434942Y-104124758D01*
X127211999Y-104151652D01*
X126998585Y-104221523D01*
X126844572Y-104303845D01*
X126768322Y-104479327D01*
X113300000Y-104479327D01*
X113300000Y-101902374D01*
X119205000Y-101902374D01*
X119205000Y-102277626D01*
X119278209Y-102645668D01*
X119421811Y-102992356D01*
X119630290Y-103304366D01*
X119895634Y-103569710D01*
X120207644Y-103778189D01*
X120554332Y-103921791D01*
X120922374Y-103995000D01*
X121297626Y-103995000D01*
X121665668Y-103921791D01*
X122012356Y-103778189D01*
X122324366Y-103569710D01*
X122589710Y-103304366D01*
X122632718Y-103240000D01*
X128958646Y-103240000D01*
X128958646Y-104760000D01*
X128964052Y-104814889D01*
X128980063Y-104867670D01*
X129006063Y-104916312D01*
X129041053Y-104958947D01*
X129083688Y-104993937D01*
X129132330Y-105019937D01*
X129185111Y-105035948D01*
X129240000Y-105041354D01*
X130760000Y-105041354D01*
X130814889Y-105035948D01*
X130867670Y-105019937D01*
X130916312Y-104993937D01*
X130958947Y-104958947D01*
X130993937Y-104916312D01*
X131019937Y-104867670D01*
X131035948Y-104814889D01*
X131039384Y-104780000D01*
X137961682Y-104780000D01*
X138000000Y-104783774D01*
X138038318Y-104780000D01*
X138152907Y-104768714D01*
X138299937Y-104724113D01*
X138435442Y-104651684D01*
X138554212Y-104554212D01*
X138578642Y-104524445D01*
X139323087Y-103780000D01*
X143076823Y-103780000D01*
X143114588Y-103772488D01*
X143152907Y-103768714D01*
X143189753Y-103757537D01*
X143227518Y-103750025D01*
X143263092Y-103735290D01*
X143299937Y-103724113D01*
X143333894Y-103705963D01*
X143369469Y-103691227D01*
X143401485Y-103669835D01*
X143435442Y-103651684D01*
X143465208Y-103627255D01*
X143497221Y-103605865D01*
X143524444Y-103578642D01*
X143554212Y-103554212D01*
X143578642Y-103524444D01*
X143605865Y-103497221D01*
X143627255Y-103465208D01*
X143651684Y-103435442D01*
X143669835Y-103401485D01*
X143691227Y-103369469D01*
X143705963Y-103333894D01*
X143724113Y-103299937D01*
X143735290Y-103263092D01*
X143750025Y-103227518D01*
X143757537Y-103189753D01*
X143768714Y-103152907D01*
X143772488Y-103114588D01*
X143780000Y-103076823D01*
X143780000Y-103038318D01*
X143783774Y-103000000D01*
X143780000Y-102961682D01*
X143780000Y-102923177D01*
X143772488Y-102885412D01*
X143768714Y-102847093D01*
X143757537Y-102810247D01*
X143750025Y-102772482D01*
X143735290Y-102736908D01*
X143724113Y-102700063D01*
X143705963Y-102666106D01*
X143691227Y-102630531D01*
X143669835Y-102598515D01*
X143651684Y-102564558D01*
X143627255Y-102534792D01*
X143605865Y-102502779D01*
X143578642Y-102475556D01*
X143554212Y-102445788D01*
X143524444Y-102421358D01*
X143497221Y-102394135D01*
X143465208Y-102372745D01*
X143435442Y-102348316D01*
X143401485Y-102330165D01*
X143369469Y-102308773D01*
X143333894Y-102294037D01*
X143299937Y-102275887D01*
X143263092Y-102264710D01*
X143227518Y-102249975D01*
X143189753Y-102242463D01*
X143152907Y-102231286D01*
X143114588Y-102227512D01*
X143076823Y-102220000D01*
X139038318Y-102220000D01*
X139000000Y-102216226D01*
X138961682Y-102220000D01*
X138847093Y-102231286D01*
X138818367Y-102240000D01*
X138700062Y-102275887D01*
X138685960Y-102283425D01*
X138564558Y-102348316D01*
X138445788Y-102445788D01*
X138421363Y-102475550D01*
X137676914Y-103220000D01*
X131039384Y-103220000D01*
X131035948Y-103185111D01*
X131019937Y-103132330D01*
X130993937Y-103083688D01*
X130958947Y-103041053D01*
X130916312Y-103006063D01*
X130867670Y-102980063D01*
X130814889Y-102964052D01*
X130760000Y-102958646D01*
X129240000Y-102958646D01*
X129185111Y-102964052D01*
X129132330Y-102980063D01*
X129083688Y-103006063D01*
X129041053Y-103041053D01*
X129006063Y-103083688D01*
X128980063Y-103132330D01*
X128964052Y-103185111D01*
X128958646Y-103240000D01*
X122632718Y-103240000D01*
X122798189Y-102992356D01*
X122941791Y-102645668D01*
X123015000Y-102277626D01*
X123015000Y-101902374D01*
X122941791Y-101534332D01*
X122798189Y-101187644D01*
X122672809Y-101000000D01*
X140216226Y-101000000D01*
X140220000Y-101038318D01*
X140220000Y-101076823D01*
X140227512Y-101114588D01*
X140231286Y-101152907D01*
X140242463Y-101189753D01*
X140249975Y-101227518D01*
X140264710Y-101263092D01*
X140275887Y-101299937D01*
X140294037Y-101333894D01*
X140308773Y-101369469D01*
X140330165Y-101401485D01*
X140348316Y-101435442D01*
X140372745Y-101465208D01*
X140394135Y-101497221D01*
X140421358Y-101524444D01*
X140445788Y-101554212D01*
X140475556Y-101578642D01*
X140502779Y-101605865D01*
X140534792Y-101627255D01*
X140564558Y-101651684D01*
X140598515Y-101669835D01*
X140630531Y-101691227D01*
X140666106Y-101705963D01*
X140700063Y-101724113D01*
X140736908Y-101735290D01*
X140772482Y-101750025D01*
X140810247Y-101757537D01*
X140847093Y-101768714D01*
X140885412Y-101772488D01*
X140923177Y-101780000D01*
X142961682Y-101780000D01*
X143000000Y-101783774D01*
X143038318Y-101780000D01*
X143076823Y-101780000D01*
X143114588Y-101772488D01*
X143152907Y-101768714D01*
X143189753Y-101757537D01*
X143227518Y-101750025D01*
X143263092Y-101735290D01*
X143299937Y-101724113D01*
X143333894Y-101705963D01*
X143369469Y-101691227D01*
X143401485Y-101669835D01*
X143435442Y-101651684D01*
X143465208Y-101627255D01*
X143497221Y-101605865D01*
X143524444Y-101578642D01*
X143554212Y-101554212D01*
X143578642Y-101524444D01*
X143605865Y-101497221D01*
X144384381Y-100718705D01*
X149520000Y-100718705D01*
X149520000Y-100941295D01*
X149563425Y-101159609D01*
X149648607Y-101365256D01*
X149772271Y-101550333D01*
X149929667Y-101707729D01*
X150114744Y-101831393D01*
X150320391Y-101916575D01*
X150538705Y-101960000D01*
X150761295Y-101960000D01*
X150979609Y-101916575D01*
X151185256Y-101831393D01*
X151370333Y-101707729D01*
X151393310Y-101684752D01*
X152434243Y-101684752D01*
X152521324Y-101869445D01*
X152736957Y-101979925D01*
X152970001Y-102046213D01*
X153211500Y-102065764D01*
X153452173Y-102037825D01*
X153682770Y-101963470D01*
X153858676Y-101869445D01*
X153945757Y-101684752D01*
X153190000Y-100928995D01*
X152434243Y-101684752D01*
X151393310Y-101684752D01*
X151527729Y-101550333D01*
X151651393Y-101365256D01*
X151736575Y-101159609D01*
X151780000Y-100941295D01*
X151780000Y-100851500D01*
X151954236Y-100851500D01*
X151982175Y-101092173D01*
X152056530Y-101322770D01*
X152150555Y-101498676D01*
X152335248Y-101585757D01*
X153091005Y-100830000D01*
X153288995Y-100830000D01*
X154044752Y-101585757D01*
X154229445Y-101498676D01*
X154339925Y-101283043D01*
X154406213Y-101049999D01*
X154425764Y-100808500D01*
X154397825Y-100567827D01*
X154323470Y-100337230D01*
X154229445Y-100161324D01*
X154044752Y-100074243D01*
X153288995Y-100830000D01*
X153091005Y-100830000D01*
X152335248Y-100074243D01*
X152150555Y-100161324D01*
X152040075Y-100376957D01*
X151973787Y-100610001D01*
X151954236Y-100851500D01*
X151780000Y-100851500D01*
X151780000Y-100718705D01*
X151736575Y-100500391D01*
X151651393Y-100294744D01*
X151527729Y-100109667D01*
X151393310Y-99975248D01*
X152434243Y-99975248D01*
X153190000Y-100731005D01*
X153945757Y-99975248D01*
X153858676Y-99790555D01*
X153643043Y-99680075D01*
X153409999Y-99613787D01*
X153168500Y-99594236D01*
X152927827Y-99622175D01*
X152697230Y-99696530D01*
X152521324Y-99790555D01*
X152434243Y-99975248D01*
X151393310Y-99975248D01*
X151370333Y-99952271D01*
X151185256Y-99828607D01*
X150979609Y-99743425D01*
X150761295Y-99700000D01*
X150538705Y-99700000D01*
X150320391Y-99743425D01*
X150114744Y-99828607D01*
X149929667Y-99952271D01*
X149772271Y-100109667D01*
X149648607Y-100294744D01*
X149563425Y-100500391D01*
X149520000Y-100718705D01*
X144384381Y-100718705D01*
X146924381Y-98178705D01*
X149520000Y-98178705D01*
X149520000Y-98401295D01*
X149563425Y-98619609D01*
X149648607Y-98825256D01*
X149772271Y-99010333D01*
X149929667Y-99167729D01*
X150114744Y-99291393D01*
X150320391Y-99376575D01*
X150538705Y-99420000D01*
X150761295Y-99420000D01*
X150979609Y-99376575D01*
X151185256Y-99291393D01*
X151370333Y-99167729D01*
X151393310Y-99144752D01*
X152434243Y-99144752D01*
X152521324Y-99329445D01*
X152736957Y-99439925D01*
X152970001Y-99506213D01*
X153211500Y-99525764D01*
X153452173Y-99497825D01*
X153682770Y-99423470D01*
X153858676Y-99329445D01*
X153945757Y-99144752D01*
X153190000Y-98388995D01*
X152434243Y-99144752D01*
X151393310Y-99144752D01*
X151527729Y-99010333D01*
X151651393Y-98825256D01*
X151736575Y-98619609D01*
X151780000Y-98401295D01*
X151780000Y-98311500D01*
X151954236Y-98311500D01*
X151982175Y-98552173D01*
X152056530Y-98782770D01*
X152150555Y-98958676D01*
X152335248Y-99045757D01*
X153091005Y-98290000D01*
X153288995Y-98290000D01*
X154044752Y-99045757D01*
X154229445Y-98958676D01*
X154339925Y-98743043D01*
X154406213Y-98509999D01*
X154425764Y-98268500D01*
X154397825Y-98027827D01*
X154323470Y-97797230D01*
X154229445Y-97621324D01*
X154044752Y-97534243D01*
X153288995Y-98290000D01*
X153091005Y-98290000D01*
X152335248Y-97534243D01*
X152150555Y-97621324D01*
X152040075Y-97836957D01*
X151973787Y-98070001D01*
X151954236Y-98311500D01*
X151780000Y-98311500D01*
X151780000Y-98178705D01*
X151736575Y-97960391D01*
X151651393Y-97754744D01*
X151527729Y-97569667D01*
X151393310Y-97435248D01*
X152434243Y-97435248D01*
X153190000Y-98191005D01*
X153945757Y-97435248D01*
X153858676Y-97250555D01*
X153643043Y-97140075D01*
X153409999Y-97073787D01*
X153168500Y-97054236D01*
X152927827Y-97082175D01*
X152697230Y-97156530D01*
X152521324Y-97250555D01*
X152434243Y-97435248D01*
X151393310Y-97435248D01*
X151370333Y-97412271D01*
X151185256Y-97288607D01*
X150979609Y-97203425D01*
X150761295Y-97160000D01*
X150538705Y-97160000D01*
X150320391Y-97203425D01*
X150114744Y-97288607D01*
X149929667Y-97412271D01*
X149772271Y-97569667D01*
X149648607Y-97754744D01*
X149563425Y-97960391D01*
X149520000Y-98178705D01*
X146924381Y-98178705D01*
X148573087Y-96530000D01*
X149552013Y-96530000D01*
X149559093Y-96553340D01*
X149608195Y-96645204D01*
X149674276Y-96725724D01*
X149754796Y-96791805D01*
X149846660Y-96840907D01*
X149946338Y-96871144D01*
X150050000Y-96881354D01*
X151250000Y-96881354D01*
X151353662Y-96871144D01*
X151453340Y-96840907D01*
X151545204Y-96791805D01*
X151625724Y-96725724D01*
X151691805Y-96645204D01*
X151740907Y-96553340D01*
X151771144Y-96453662D01*
X151781354Y-96350000D01*
X151781354Y-95638705D01*
X152060000Y-95638705D01*
X152060000Y-95861295D01*
X152103425Y-96079609D01*
X152188607Y-96285256D01*
X152312271Y-96470333D01*
X152469667Y-96627729D01*
X152654744Y-96751393D01*
X152860391Y-96836575D01*
X153078705Y-96880000D01*
X153301295Y-96880000D01*
X153519609Y-96836575D01*
X153725256Y-96751393D01*
X153910333Y-96627729D01*
X154067729Y-96470333D01*
X154191393Y-96285256D01*
X154276575Y-96079609D01*
X154320000Y-95861295D01*
X154320000Y-95638705D01*
X154276575Y-95420391D01*
X154191393Y-95214744D01*
X154067729Y-95029667D01*
X153910333Y-94872271D01*
X153725256Y-94748607D01*
X153519609Y-94663425D01*
X153301295Y-94620000D01*
X153078705Y-94620000D01*
X152860391Y-94663425D01*
X152654744Y-94748607D01*
X152469667Y-94872271D01*
X152312271Y-95029667D01*
X152188607Y-95214744D01*
X152103425Y-95420391D01*
X152060000Y-95638705D01*
X151781354Y-95638705D01*
X151781354Y-95150000D01*
X151771144Y-95046338D01*
X151740907Y-94946660D01*
X151691805Y-94854796D01*
X151625724Y-94774276D01*
X151545204Y-94708195D01*
X151453340Y-94659093D01*
X151353662Y-94628856D01*
X151250000Y-94618646D01*
X150050000Y-94618646D01*
X149946338Y-94628856D01*
X149846660Y-94659093D01*
X149754796Y-94708195D01*
X149674276Y-94774276D01*
X149608195Y-94854796D01*
X149559093Y-94946660D01*
X149552013Y-94970000D01*
X148288310Y-94970000D01*
X148249999Y-94966227D01*
X148211689Y-94970000D01*
X148211682Y-94970000D01*
X148097093Y-94981286D01*
X147950063Y-95025887D01*
X147814558Y-95098316D01*
X147695788Y-95195788D01*
X147671363Y-95225550D01*
X142676914Y-100220000D01*
X140923177Y-100220000D01*
X140885412Y-100227512D01*
X140847093Y-100231286D01*
X140810247Y-100242463D01*
X140772482Y-100249975D01*
X140736908Y-100264710D01*
X140700063Y-100275887D01*
X140666106Y-100294037D01*
X140630531Y-100308773D01*
X140598515Y-100330165D01*
X140564558Y-100348316D01*
X140534792Y-100372745D01*
X140502779Y-100394135D01*
X140475556Y-100421358D01*
X140445788Y-100445788D01*
X140421358Y-100475556D01*
X140394135Y-100502779D01*
X140372745Y-100534792D01*
X140348316Y-100564558D01*
X140330165Y-100598515D01*
X140308773Y-100630531D01*
X140294037Y-100666106D01*
X140275887Y-100700063D01*
X140264710Y-100736908D01*
X140249975Y-100772482D01*
X140242463Y-100810247D01*
X140231286Y-100847093D01*
X140227512Y-100885412D01*
X140220000Y-100923177D01*
X140220000Y-100961682D01*
X140216226Y-101000000D01*
X122672809Y-101000000D01*
X122589710Y-100875634D01*
X122324366Y-100610290D01*
X122012356Y-100401811D01*
X121665668Y-100258209D01*
X121297626Y-100185000D01*
X120922374Y-100185000D01*
X120554332Y-100258209D01*
X120207644Y-100401811D01*
X119895634Y-100610290D01*
X119630290Y-100875634D01*
X119421811Y-101187644D01*
X119278209Y-101534332D01*
X119205000Y-101902374D01*
X113300000Y-101902374D01*
X113300000Y-99214104D01*
X145050125Y-88300000D01*
X158700001Y-88300000D01*
X158700000Y-125700000D01*
G37*
X158700000Y-125700000D02*
X145050125Y-125700000D01*
X124100901Y-118498705D01*
X149520000Y-118498705D01*
X149520000Y-118721295D01*
X149563425Y-118939609D01*
X149648607Y-119145256D01*
X149772271Y-119330333D01*
X149929667Y-119487729D01*
X150114744Y-119611393D01*
X150320391Y-119696575D01*
X150538705Y-119740000D01*
X150761295Y-119740000D01*
X150979609Y-119696575D01*
X151185256Y-119611393D01*
X151370333Y-119487729D01*
X151393310Y-119464752D01*
X152434243Y-119464752D01*
X152521324Y-119649445D01*
X152736957Y-119759925D01*
X152970001Y-119826213D01*
X153211500Y-119845764D01*
X153452173Y-119817825D01*
X153682770Y-119743470D01*
X153858676Y-119649445D01*
X153945757Y-119464752D01*
X153190000Y-118708995D01*
X152434243Y-119464752D01*
X151393310Y-119464752D01*
X151527729Y-119330333D01*
X151651393Y-119145256D01*
X151736575Y-118939609D01*
X151780000Y-118721295D01*
X151780000Y-118631500D01*
X151954236Y-118631500D01*
X151982175Y-118872173D01*
X152056530Y-119102770D01*
X152150555Y-119278676D01*
X152335248Y-119365757D01*
X153091005Y-118610000D01*
X153288995Y-118610000D01*
X154044752Y-119365757D01*
X154229445Y-119278676D01*
X154339925Y-119063043D01*
X154406213Y-118829999D01*
X154425764Y-118588500D01*
X154397825Y-118347827D01*
X154323470Y-118117230D01*
X154229445Y-117941324D01*
X154044752Y-117854243D01*
X153288995Y-118610000D01*
X153091005Y-118610000D01*
X152335248Y-117854243D01*
X152150555Y-117941324D01*
X152040075Y-118156957D01*
X151973787Y-118390001D01*
X151954236Y-118631500D01*
X151780000Y-118631500D01*
X151780000Y-118498705D01*
X151736575Y-118280391D01*
X151651393Y-118074744D01*
X151527729Y-117889667D01*
X151393310Y-117755248D01*
X152434243Y-117755248D01*
X153190000Y-118511005D01*
X153945757Y-117755248D01*
X153858676Y-117570555D01*
X153643043Y-117460075D01*
X153409999Y-117393787D01*
X153168500Y-117374236D01*
X152927827Y-117402175D01*
X152697230Y-117476530D01*
X152521324Y-117570555D01*
X152434243Y-117755248D01*
X151393310Y-117755248D01*
X151370333Y-117732271D01*
X151185256Y-117608607D01*
X150979609Y-117523425D01*
X150761295Y-117480000D01*
X150538705Y-117480000D01*
X150320391Y-117523425D01*
X150114744Y-117608607D01*
X149929667Y-117732271D01*
X149772271Y-117889667D01*
X149648607Y-118074744D01*
X149563425Y-118280391D01*
X149520000Y-118498705D01*
X124100901Y-118498705D01*
X116711809Y-115958705D01*
X149520000Y-115958705D01*
X149520000Y-116181295D01*
X149563425Y-116399609D01*
X149648607Y-116605256D01*
X149772271Y-116790333D01*
X149929667Y-116947729D01*
X150114744Y-117071393D01*
X150320391Y-117156575D01*
X150538705Y-117200000D01*
X150761295Y-117200000D01*
X150979609Y-117156575D01*
X151185256Y-117071393D01*
X151370333Y-116947729D01*
X151393310Y-116924752D01*
X152434243Y-116924752D01*
X152521324Y-117109445D01*
X152736957Y-117219925D01*
X152970001Y-117286213D01*
X153211500Y-117305764D01*
X153452173Y-117277825D01*
X153682770Y-117203470D01*
X153858676Y-117109445D01*
X153945757Y-116924752D01*
X153190000Y-116168995D01*
X152434243Y-116924752D01*
X151393310Y-116924752D01*
X151527729Y-116790333D01*
X151651393Y-116605256D01*
X151736575Y-116399609D01*
X151780000Y-116181295D01*
X151780000Y-116091500D01*
X151954236Y-116091500D01*
X151982175Y-116332173D01*
X152056530Y-116562770D01*
X152150555Y-116738676D01*
X152335248Y-116825757D01*
X153091005Y-116070000D01*
X153288995Y-116070000D01*
X154044752Y-116825757D01*
X154229445Y-116738676D01*
X154339925Y-116523043D01*
X154406213Y-116289999D01*
X154425764Y-116048500D01*
X154397825Y-115807827D01*
X154323470Y-115577230D01*
X154229445Y-115401324D01*
X154044752Y-115314243D01*
X153288995Y-116070000D01*
X153091005Y-116070000D01*
X152335248Y-115314243D01*
X152150555Y-115401324D01*
X152040075Y-115616957D01*
X151973787Y-115850001D01*
X151954236Y-116091500D01*
X151780000Y-116091500D01*
X151780000Y-115958705D01*
X151736575Y-115740391D01*
X151651393Y-115534744D01*
X151527729Y-115349667D01*
X151393310Y-115215248D01*
X152434243Y-115215248D01*
X153190000Y-115971005D01*
X153945757Y-115215248D01*
X153858676Y-115030555D01*
X153643043Y-114920075D01*
X153409999Y-114853787D01*
X153168500Y-114834236D01*
X152927827Y-114862175D01*
X152697230Y-114936530D01*
X152521324Y-115030555D01*
X152434243Y-115215248D01*
X151393310Y-115215248D01*
X151370333Y-115192271D01*
X151185256Y-115068607D01*
X150979609Y-114983425D01*
X150761295Y-114940000D01*
X150538705Y-114940000D01*
X150320391Y-114983425D01*
X150114744Y-115068607D01*
X149929667Y-115192271D01*
X149772271Y-115349667D01*
X149648607Y-115534744D01*
X149563425Y-115740391D01*
X149520000Y-115958705D01*
X116711809Y-115958705D01*
X113300000Y-114785896D01*
X113300000Y-112062374D01*
X119205000Y-112062374D01*
X119205000Y-112437626D01*
X119278209Y-112805668D01*
X119421811Y-113152356D01*
X119630290Y-113464366D01*
X119895634Y-113729710D01*
X120207644Y-113938189D01*
X120554332Y-114081791D01*
X120922374Y-114155000D01*
X121297626Y-114155000D01*
X121665668Y-114081791D01*
X122012356Y-113938189D01*
X122324366Y-113729710D01*
X122589710Y-113464366D01*
X122798189Y-113152356D01*
X122941791Y-112805668D01*
X123015000Y-112437626D01*
X123015000Y-112062374D01*
X122941791Y-111694332D01*
X122798189Y-111347644D01*
X122589710Y-111035634D01*
X122324366Y-110770290D01*
X122012356Y-110561811D01*
X121665668Y-110418209D01*
X121297626Y-110345000D01*
X120922374Y-110345000D01*
X120554332Y-110418209D01*
X120207644Y-110561811D01*
X119895634Y-110770290D01*
X119630290Y-111035634D01*
X119421811Y-111347644D01*
X119278209Y-111694332D01*
X119205000Y-112062374D01*
X113300000Y-112062374D01*
X113300000Y-110270000D01*
X124216226Y-110270000D01*
X124220000Y-110308318D01*
X124220001Y-111961672D01*
X124216226Y-112000000D01*
X124231286Y-112152906D01*
X124275888Y-112299937D01*
X124329373Y-112400000D01*
X124348317Y-112435442D01*
X124445789Y-112554212D01*
X124475551Y-112578637D01*
X125951363Y-114054450D01*
X125975788Y-114084212D01*
X126094558Y-114181684D01*
X126230063Y-114254113D01*
X126377093Y-114298714D01*
X126530000Y-114313774D01*
X126568318Y-114310000D01*
X149831938Y-114310000D01*
X149929667Y-114407729D01*
X150114744Y-114531393D01*
X150320391Y-114616575D01*
X150538705Y-114660000D01*
X150761295Y-114660000D01*
X150979609Y-114616575D01*
X151185256Y-114531393D01*
X151370333Y-114407729D01*
X151393310Y-114384752D01*
X152434243Y-114384752D01*
X152521324Y-114569445D01*
X152736957Y-114679925D01*
X152970001Y-114746213D01*
X153211500Y-114765764D01*
X153452173Y-114737825D01*
X153682770Y-114663470D01*
X153858676Y-114569445D01*
X153945757Y-114384752D01*
X153190000Y-113628995D01*
X152434243Y-114384752D01*
X151393310Y-114384752D01*
X151527729Y-114250333D01*
X151651393Y-114065256D01*
X151736575Y-113859609D01*
X151780000Y-113641295D01*
X151780000Y-113551500D01*
X151954236Y-113551500D01*
X151982175Y-113792173D01*
X152056530Y-114022770D01*
X152150555Y-114198676D01*
X152335248Y-114285757D01*
X153091005Y-113530000D01*
X153288995Y-113530000D01*
X154044752Y-114285757D01*
X154229445Y-114198676D01*
X154339925Y-113983043D01*
X154406213Y-113749999D01*
X154425764Y-113508500D01*
X154397825Y-113267827D01*
X154323470Y-113037230D01*
X154229445Y-112861324D01*
X154044752Y-112774243D01*
X153288995Y-113530000D01*
X153091005Y-113530000D01*
X152335248Y-112774243D01*
X152150555Y-112861324D01*
X152040075Y-113076957D01*
X151973787Y-113310001D01*
X151954236Y-113551500D01*
X151780000Y-113551500D01*
X151780000Y-113418705D01*
X151736575Y-113200391D01*
X151651393Y-112994744D01*
X151527729Y-112809667D01*
X151393310Y-112675248D01*
X152434243Y-112675248D01*
X153190000Y-113431005D01*
X153945757Y-112675248D01*
X153858676Y-112490555D01*
X153643043Y-112380075D01*
X153409999Y-112313787D01*
X153168500Y-112294236D01*
X152927827Y-112322175D01*
X152697230Y-112396530D01*
X152521324Y-112490555D01*
X152434243Y-112675248D01*
X151393310Y-112675248D01*
X151370333Y-112652271D01*
X151185256Y-112528607D01*
X150979609Y-112443425D01*
X150761295Y-112400000D01*
X150538705Y-112400000D01*
X150320391Y-112443425D01*
X150114744Y-112528607D01*
X149929667Y-112652271D01*
X149831938Y-112750000D01*
X126853087Y-112750000D01*
X125780000Y-111676914D01*
X125780000Y-110593086D01*
X126583980Y-109789106D01*
X126538364Y-109857375D01*
X126459967Y-110046643D01*
X126420000Y-110247569D01*
X126420000Y-110452431D01*
X126459967Y-110653357D01*
X126538364Y-110842625D01*
X126652179Y-111012961D01*
X126797039Y-111157821D01*
X126967375Y-111271636D01*
X127156643Y-111350033D01*
X127357569Y-111390000D01*
X127396913Y-111390000D01*
X127641361Y-111634448D01*
X127665787Y-111664211D01*
X127695549Y-111688636D01*
X127695550Y-111688637D01*
X127709473Y-111700063D01*
X127784557Y-111761683D01*
X127920062Y-111834112D01*
X128030883Y-111867729D01*
X128067092Y-111878713D01*
X128219999Y-111893773D01*
X128258317Y-111889999D01*
X132851683Y-111889999D01*
X132890001Y-111893773D01*
X132928319Y-111889999D01*
X133042908Y-111878713D01*
X133189938Y-111834112D01*
X133325443Y-111761683D01*
X133444213Y-111664211D01*
X133468643Y-111634443D01*
X134224381Y-110878705D01*
X149520000Y-110878705D01*
X149520000Y-111101295D01*
X149563425Y-111319609D01*
X149648607Y-111525256D01*
X149772271Y-111710333D01*
X149929667Y-111867729D01*
X150114744Y-111991393D01*
X150320391Y-112076575D01*
X150538705Y-112120000D01*
X150761295Y-112120000D01*
X150979609Y-112076575D01*
X151185256Y-111991393D01*
X151370333Y-111867729D01*
X151393310Y-111844752D01*
X152434243Y-111844752D01*
X152521324Y-112029445D01*
X152736957Y-112139925D01*
X152970001Y-112206213D01*
X153211500Y-112225764D01*
X153452173Y-112197825D01*
X153682770Y-112123470D01*
X153858676Y-112029445D01*
X153945757Y-111844752D01*
X153190000Y-111088995D01*
X152434243Y-111844752D01*
X151393310Y-111844752D01*
X151527729Y-111710333D01*
X151651393Y-111525256D01*
X151736575Y-111319609D01*
X151780000Y-111101295D01*
X151780000Y-111011500D01*
X151954236Y-111011500D01*
X151982175Y-111252173D01*
X152056530Y-111482770D01*
X152150555Y-111658676D01*
X152335248Y-111745757D01*
X153091005Y-110990000D01*
X153288995Y-110990000D01*
X154044752Y-111745757D01*
X154229445Y-111658676D01*
X154339925Y-111443043D01*
X154406213Y-111209999D01*
X154425764Y-110968500D01*
X154397825Y-110727827D01*
X154323470Y-110497230D01*
X154229445Y-110321324D01*
X154044752Y-110234243D01*
X153288995Y-110990000D01*
X153091005Y-110990000D01*
X152335248Y-110234243D01*
X152150555Y-110321324D01*
X152040075Y-110536957D01*
X151973787Y-110770001D01*
X151954236Y-111011500D01*
X151780000Y-111011500D01*
X151780000Y-110878705D01*
X151736575Y-110660391D01*
X151651393Y-110454744D01*
X151527729Y-110269667D01*
X151393310Y-110135248D01*
X152434243Y-110135248D01*
X153190000Y-110891005D01*
X153945757Y-110135248D01*
X153858676Y-109950555D01*
X153643043Y-109840075D01*
X153409999Y-109773787D01*
X153168500Y-109754236D01*
X152927827Y-109782175D01*
X152697230Y-109856530D01*
X152521324Y-109950555D01*
X152434243Y-110135248D01*
X151393310Y-110135248D01*
X151370333Y-110112271D01*
X151185256Y-109988607D01*
X150979609Y-109903425D01*
X150761295Y-109860000D01*
X150538705Y-109860000D01*
X150320391Y-109903425D01*
X150114744Y-109988607D01*
X149929667Y-110112271D01*
X149772271Y-110269667D01*
X149648607Y-110454744D01*
X149563425Y-110660391D01*
X149520000Y-110878705D01*
X134224381Y-110878705D01*
X136578638Y-108524449D01*
X136578643Y-108524443D01*
X136605865Y-108497221D01*
X136627255Y-108465209D01*
X136651684Y-108435442D01*
X136669834Y-108401486D01*
X136691227Y-108369469D01*
X136703969Y-108338705D01*
X149520000Y-108338705D01*
X149520000Y-108561295D01*
X149563425Y-108779609D01*
X149648607Y-108985256D01*
X149772271Y-109170333D01*
X149929667Y-109327729D01*
X150114744Y-109451393D01*
X150320391Y-109536575D01*
X150538705Y-109580000D01*
X150761295Y-109580000D01*
X150979609Y-109536575D01*
X151185256Y-109451393D01*
X151370333Y-109327729D01*
X151393310Y-109304752D01*
X152434243Y-109304752D01*
X152521324Y-109489445D01*
X152736957Y-109599925D01*
X152970001Y-109666213D01*
X153211500Y-109685764D01*
X153452173Y-109657825D01*
X153682770Y-109583470D01*
X153858676Y-109489445D01*
X153945757Y-109304752D01*
X153190000Y-108548995D01*
X152434243Y-109304752D01*
X151393310Y-109304752D01*
X151527729Y-109170333D01*
X151651393Y-108985256D01*
X151736575Y-108779609D01*
X151780000Y-108561295D01*
X151780000Y-108471500D01*
X151954236Y-108471500D01*
X151982175Y-108712173D01*
X152056530Y-108942770D01*
X152150555Y-109118676D01*
X152335248Y-109205757D01*
X153091005Y-108450000D01*
X153288995Y-108450000D01*
X154044752Y-109205757D01*
X154229445Y-109118676D01*
X154339925Y-108903043D01*
X154406213Y-108669999D01*
X154425764Y-108428500D01*
X154397825Y-108187827D01*
X154323470Y-107957230D01*
X154229445Y-107781324D01*
X154044752Y-107694243D01*
X153288995Y-108450000D01*
X153091005Y-108450000D01*
X152335248Y-107694243D01*
X152150555Y-107781324D01*
X152040075Y-107996957D01*
X151973787Y-108230001D01*
X151954236Y-108471500D01*
X151780000Y-108471500D01*
X151780000Y-108338705D01*
X151736575Y-108120391D01*
X151651393Y-107914744D01*
X151527729Y-107729667D01*
X151393310Y-107595248D01*
X152434243Y-107595248D01*
X153190000Y-108351005D01*
X153945757Y-107595248D01*
X153858676Y-107410555D01*
X153643043Y-107300075D01*
X153409999Y-107233787D01*
X153168500Y-107214236D01*
X152927827Y-107242175D01*
X152697230Y-107316530D01*
X152521324Y-107410555D01*
X152434243Y-107595248D01*
X151393310Y-107595248D01*
X151370333Y-107572271D01*
X151185256Y-107448607D01*
X150979609Y-107363425D01*
X150761295Y-107320000D01*
X150538705Y-107320000D01*
X150320391Y-107363425D01*
X150114744Y-107448607D01*
X149929667Y-107572271D01*
X149772271Y-107729667D01*
X149648607Y-107914744D01*
X149563425Y-108120391D01*
X149520000Y-108338705D01*
X136703969Y-108338705D01*
X136705964Y-108333891D01*
X136724112Y-108299938D01*
X136735288Y-108263097D01*
X136750025Y-108227518D01*
X136757537Y-108189751D01*
X136768714Y-108152907D01*
X136772488Y-108114588D01*
X136780000Y-108076823D01*
X136780000Y-108038318D01*
X136783774Y-108000000D01*
X136780000Y-107961682D01*
X136780000Y-107923177D01*
X136772488Y-107885411D01*
X136768714Y-107847094D01*
X136757538Y-107810252D01*
X136750025Y-107772482D01*
X136735287Y-107736901D01*
X136724112Y-107700063D01*
X136705966Y-107666114D01*
X136691227Y-107630531D01*
X136669831Y-107598510D01*
X136651684Y-107564559D01*
X136627258Y-107534796D01*
X136605865Y-107502779D01*
X136578641Y-107475555D01*
X136554212Y-107445788D01*
X136524445Y-107421359D01*
X136497221Y-107394135D01*
X136465204Y-107372742D01*
X136435441Y-107348316D01*
X136401490Y-107330169D01*
X136386271Y-107320000D01*
X149981682Y-107320000D01*
X150020000Y-107323774D01*
X150058318Y-107320000D01*
X150172907Y-107308714D01*
X150319937Y-107264113D01*
X150455442Y-107191684D01*
X150574212Y-107094212D01*
X150598641Y-107064445D01*
X150623086Y-107040000D01*
X150761295Y-107040000D01*
X150979609Y-106996575D01*
X151185256Y-106911393D01*
X151370333Y-106787729D01*
X151393310Y-106764752D01*
X152434243Y-106764752D01*
X152521324Y-106949445D01*
X152736957Y-107059925D01*
X152970001Y-107126213D01*
X153211500Y-107145764D01*
X153452173Y-107117825D01*
X153682770Y-107043470D01*
X153858676Y-106949445D01*
X153945757Y-106764752D01*
X153190000Y-106008995D01*
X152434243Y-106764752D01*
X151393310Y-106764752D01*
X151527729Y-106630333D01*
X151651393Y-106445256D01*
X151736575Y-106239609D01*
X151780000Y-106021295D01*
X151780000Y-105931500D01*
X151954236Y-105931500D01*
X151982175Y-106172173D01*
X152056530Y-106402770D01*
X152150555Y-106578676D01*
X152335248Y-106665757D01*
X153091005Y-105910000D01*
X153288995Y-105910000D01*
X154044752Y-106665757D01*
X154229445Y-106578676D01*
X154339925Y-106363043D01*
X154406213Y-106129999D01*
X154425764Y-105888500D01*
X154397825Y-105647827D01*
X154323470Y-105417230D01*
X154229445Y-105241324D01*
X154044752Y-105154243D01*
X153288995Y-105910000D01*
X153091005Y-105910000D01*
X152335248Y-105154243D01*
X152150555Y-105241324D01*
X152040075Y-105456957D01*
X151973787Y-105690001D01*
X151954236Y-105931500D01*
X151780000Y-105931500D01*
X151780000Y-105798705D01*
X151736575Y-105580391D01*
X151651393Y-105374744D01*
X151527729Y-105189667D01*
X151393310Y-105055248D01*
X152434243Y-105055248D01*
X153190000Y-105811005D01*
X153945757Y-105055248D01*
X153858676Y-104870555D01*
X153643043Y-104760075D01*
X153409999Y-104693787D01*
X153168500Y-104674236D01*
X152927827Y-104702175D01*
X152697230Y-104776530D01*
X152521324Y-104870555D01*
X152434243Y-105055248D01*
X151393310Y-105055248D01*
X151370333Y-105032271D01*
X151185256Y-104908607D01*
X150979609Y-104823425D01*
X150761295Y-104780000D01*
X150538705Y-104780000D01*
X150320391Y-104823425D01*
X150285003Y-104838083D01*
X150623087Y-104500000D01*
X150761295Y-104500000D01*
X150979609Y-104456575D01*
X151185256Y-104371393D01*
X151370333Y-104247729D01*
X151393310Y-104224752D01*
X152434243Y-104224752D01*
X152521324Y-104409445D01*
X152736957Y-104519925D01*
X152970001Y-104586213D01*
X153211500Y-104605764D01*
X153452173Y-104577825D01*
X153682770Y-104503470D01*
X153858676Y-104409445D01*
X153945757Y-104224752D01*
X153190000Y-103468995D01*
X152434243Y-104224752D01*
X151393310Y-104224752D01*
X151527729Y-104090333D01*
X151651393Y-103905256D01*
X151736575Y-103699609D01*
X151780000Y-103481295D01*
X151780000Y-103391500D01*
X151954236Y-103391500D01*
X151982175Y-103632173D01*
X152056530Y-103862770D01*
X152150555Y-104038676D01*
X152335248Y-104125757D01*
X153091005Y-103370000D01*
X153288995Y-103370000D01*
X154044752Y-104125757D01*
X154229445Y-104038676D01*
X154339925Y-103823043D01*
X154406213Y-103589999D01*
X154425764Y-103348500D01*
X154397825Y-103107827D01*
X154323470Y-102877230D01*
X154229445Y-102701324D01*
X154044752Y-102614243D01*
X153288995Y-103370000D01*
X153091005Y-103370000D01*
X152335248Y-102614243D01*
X152150555Y-102701324D01*
X152040075Y-102916957D01*
X151973787Y-103150001D01*
X151954236Y-103391500D01*
X151780000Y-103391500D01*
X151780000Y-103258705D01*
X151736575Y-103040391D01*
X151651393Y-102834744D01*
X151527729Y-102649667D01*
X151393310Y-102515248D01*
X152434243Y-102515248D01*
X153190000Y-103271005D01*
X153945757Y-102515248D01*
X153858676Y-102330555D01*
X153643043Y-102220075D01*
X153409999Y-102153787D01*
X153168500Y-102134236D01*
X152927827Y-102162175D01*
X152697230Y-102236530D01*
X152521324Y-102330555D01*
X152434243Y-102515248D01*
X151393310Y-102515248D01*
X151370333Y-102492271D01*
X151185256Y-102368607D01*
X150979609Y-102283425D01*
X150761295Y-102240000D01*
X150538705Y-102240000D01*
X150320391Y-102283425D01*
X150114744Y-102368607D01*
X149929667Y-102492271D01*
X149772271Y-102649667D01*
X149648607Y-102834744D01*
X149563425Y-103040391D01*
X149520000Y-103258705D01*
X149520000Y-103396913D01*
X148696914Y-104220000D01*
X140923177Y-104220000D01*
X140885412Y-104227512D01*
X140847093Y-104231286D01*
X140810247Y-104242463D01*
X140772482Y-104249975D01*
X140736908Y-104264710D01*
X140700063Y-104275887D01*
X140666106Y-104294037D01*
X140630531Y-104308773D01*
X140598515Y-104330165D01*
X140564558Y-104348316D01*
X140534792Y-104372745D01*
X140502779Y-104394135D01*
X140475556Y-104421358D01*
X140445788Y-104445788D01*
X140421358Y-104475556D01*
X140394135Y-104502779D01*
X140372745Y-104534792D01*
X140348316Y-104564558D01*
X140330165Y-104598515D01*
X140308773Y-104630531D01*
X140294037Y-104666106D01*
X140275887Y-104700063D01*
X140264710Y-104736908D01*
X140249975Y-104772482D01*
X140242463Y-104810247D01*
X140231286Y-104847093D01*
X140227512Y-104885412D01*
X140220000Y-104923177D01*
X140220000Y-104961682D01*
X140216226Y-105000000D01*
X140220000Y-105038318D01*
X140220000Y-105076823D01*
X140227512Y-105114588D01*
X140231286Y-105152907D01*
X140242463Y-105189753D01*
X140249975Y-105227518D01*
X140264710Y-105263092D01*
X140275887Y-105299937D01*
X140294037Y-105333894D01*
X140308773Y-105369469D01*
X140330165Y-105401485D01*
X140348316Y-105435442D01*
X140372745Y-105465208D01*
X140394135Y-105497221D01*
X140421358Y-105524444D01*
X140445788Y-105554212D01*
X140475556Y-105578642D01*
X140502779Y-105605865D01*
X140534792Y-105627255D01*
X140564558Y-105651684D01*
X140598515Y-105669835D01*
X140630531Y-105691227D01*
X140666106Y-105705963D01*
X140700063Y-105724113D01*
X140736908Y-105735290D01*
X140772482Y-105750025D01*
X140810247Y-105757537D01*
X140818367Y-105760000D01*
X130690782Y-105760000D01*
X130662961Y-105732179D01*
X130492625Y-105618364D01*
X130303357Y-105539967D01*
X130102431Y-105500000D01*
X129897569Y-105500000D01*
X129696643Y-105539967D01*
X129507375Y-105618364D01*
X129337039Y-105732179D01*
X129192179Y-105877039D01*
X129078364Y-106047375D01*
X128999967Y-106236643D01*
X128960000Y-106437569D01*
X128960000Y-106642431D01*
X128999967Y-106843357D01*
X129078364Y-107032625D01*
X129192179Y-107202961D01*
X129337039Y-107347821D01*
X129507375Y-107461636D01*
X129696643Y-107540033D01*
X129897569Y-107580000D01*
X130102431Y-107580000D01*
X130303357Y-107540033D01*
X130492625Y-107461636D01*
X130662961Y-107347821D01*
X130690782Y-107320000D01*
X135613729Y-107320000D01*
X135598514Y-107330166D01*
X135564558Y-107348316D01*
X135534791Y-107372745D01*
X135502779Y-107394135D01*
X135475557Y-107421357D01*
X135475551Y-107421362D01*
X132566915Y-110329999D01*
X128543086Y-110329999D01*
X128500000Y-110286913D01*
X128500000Y-110247569D01*
X128460033Y-110046643D01*
X128381636Y-109857375D01*
X128267821Y-109687039D01*
X128122961Y-109542179D01*
X127952625Y-109428364D01*
X127763357Y-109349967D01*
X127562431Y-109310000D01*
X127357569Y-109310000D01*
X127156643Y-109349967D01*
X126967375Y-109428364D01*
X126899106Y-109473980D01*
X127395517Y-108977569D01*
X128960000Y-108977569D01*
X128960000Y-109182431D01*
X128999967Y-109383357D01*
X129078364Y-109572625D01*
X129192179Y-109742961D01*
X129337039Y-109887821D01*
X129507375Y-110001636D01*
X129696643Y-110080033D01*
X129897569Y-110120000D01*
X130102431Y-110120000D01*
X130303357Y-110080033D01*
X130492625Y-110001636D01*
X130662961Y-109887821D01*
X130807821Y-109742961D01*
X130921636Y-109572625D01*
X131000033Y-109383357D01*
X131040000Y-109182431D01*
X131040000Y-108977569D01*
X131000033Y-108776643D01*
X130921636Y-108587375D01*
X130807821Y-108417039D01*
X130662961Y-108272179D01*
X130492625Y-108158364D01*
X130303357Y-108079967D01*
X130102431Y-108040000D01*
X129897569Y-108040000D01*
X129696643Y-108079967D01*
X129507375Y-108158364D01*
X129337039Y-108272179D01*
X129192179Y-108417039D01*
X129078364Y-108587375D01*
X128999967Y-108776643D01*
X128960000Y-108977569D01*
X127395517Y-108977569D01*
X127523086Y-108850000D01*
X127562431Y-108850000D01*
X127763357Y-108810033D01*
X127952625Y-108731636D01*
X128122961Y-108617821D01*
X128267821Y-108472961D01*
X128381636Y-108302625D01*
X128460033Y-108113357D01*
X128500000Y-107912431D01*
X128500000Y-107707569D01*
X128460033Y-107506643D01*
X128381636Y-107317375D01*
X128267821Y-107147039D01*
X128122961Y-107002179D01*
X127952625Y-106888364D01*
X127763357Y-106809967D01*
X127562431Y-106770000D01*
X127357569Y-106770000D01*
X127156643Y-106809967D01*
X126967375Y-106888364D01*
X126797039Y-107002179D01*
X126652179Y-107147039D01*
X126538364Y-107317375D01*
X126459967Y-107506643D01*
X126420000Y-107707569D01*
X126420000Y-107746914D01*
X124475556Y-109691358D01*
X124445788Y-109715788D01*
X124348316Y-109834559D01*
X124275887Y-109970064D01*
X124266310Y-110001636D01*
X124231286Y-110117094D01*
X124216226Y-110270000D01*
X113300000Y-110270000D01*
X113300000Y-106060673D01*
X126768322Y-106060673D01*
X126844572Y-106236155D01*
X127044884Y-106337655D01*
X127261150Y-106398125D01*
X127485058Y-106415242D01*
X127708001Y-106388348D01*
X127921415Y-106318477D01*
X128075428Y-106236155D01*
X128151678Y-106060673D01*
X127460000Y-105368995D01*
X126768322Y-106060673D01*
X113300000Y-106060673D01*
X113300000Y-105295058D01*
X126314758Y-105295058D01*
X126341652Y-105518001D01*
X126411523Y-105731415D01*
X126493845Y-105885428D01*
X126669327Y-105961678D01*
X127361005Y-105270000D01*
X127558995Y-105270000D01*
X128250673Y-105961678D01*
X128426155Y-105885428D01*
X128527655Y-105685116D01*
X128588125Y-105468850D01*
X128605242Y-105244942D01*
X128578348Y-105021999D01*
X128508477Y-104808585D01*
X128426155Y-104654572D01*
X128250673Y-104578322D01*
X127558995Y-105270000D01*
X127361005Y-105270000D01*
X126669327Y-104578322D01*
X126493845Y-104654572D01*
X126392345Y-104854884D01*
X126331875Y-105071150D01*
X126314758Y-105295058D01*
X113300000Y-105295058D01*
X113300000Y-104479327D01*
X126768322Y-104479327D01*
X127460000Y-105171005D01*
X128151678Y-104479327D01*
X128075428Y-104303845D01*
X127875116Y-104202345D01*
X127658850Y-104141875D01*
X127434942Y-104124758D01*
X127211999Y-104151652D01*
X126998585Y-104221523D01*
X126844572Y-104303845D01*
X126768322Y-104479327D01*
X113300000Y-104479327D01*
X113300000Y-101902374D01*
X119205000Y-101902374D01*
X119205000Y-102277626D01*
X119278209Y-102645668D01*
X119421811Y-102992356D01*
X119630290Y-103304366D01*
X119895634Y-103569710D01*
X120207644Y-103778189D01*
X120554332Y-103921791D01*
X120922374Y-103995000D01*
X121297626Y-103995000D01*
X121665668Y-103921791D01*
X122012356Y-103778189D01*
X122324366Y-103569710D01*
X122589710Y-103304366D01*
X122632718Y-103240000D01*
X128958646Y-103240000D01*
X128958646Y-104760000D01*
X128964052Y-104814889D01*
X128980063Y-104867670D01*
X129006063Y-104916312D01*
X129041053Y-104958947D01*
X129083688Y-104993937D01*
X129132330Y-105019937D01*
X129185111Y-105035948D01*
X129240000Y-105041354D01*
X130760000Y-105041354D01*
X130814889Y-105035948D01*
X130867670Y-105019937D01*
X130916312Y-104993937D01*
X130958947Y-104958947D01*
X130993937Y-104916312D01*
X131019937Y-104867670D01*
X131035948Y-104814889D01*
X131039384Y-104780000D01*
X137961682Y-104780000D01*
X138000000Y-104783774D01*
X138038318Y-104780000D01*
X138152907Y-104768714D01*
X138299937Y-104724113D01*
X138435442Y-104651684D01*
X138554212Y-104554212D01*
X138578642Y-104524445D01*
X139323087Y-103780000D01*
X143076823Y-103780000D01*
X143114588Y-103772488D01*
X143152907Y-103768714D01*
X143189753Y-103757537D01*
X143227518Y-103750025D01*
X143263092Y-103735290D01*
X143299937Y-103724113D01*
X143333894Y-103705963D01*
X143369469Y-103691227D01*
X143401485Y-103669835D01*
X143435442Y-103651684D01*
X143465208Y-103627255D01*
X143497221Y-103605865D01*
X143524444Y-103578642D01*
X143554212Y-103554212D01*
X143578642Y-103524444D01*
X143605865Y-103497221D01*
X143627255Y-103465208D01*
X143651684Y-103435442D01*
X143669835Y-103401485D01*
X143691227Y-103369469D01*
X143705963Y-103333894D01*
X143724113Y-103299937D01*
X143735290Y-103263092D01*
X143750025Y-103227518D01*
X143757537Y-103189753D01*
X143768714Y-103152907D01*
X143772488Y-103114588D01*
X143780000Y-103076823D01*
X143780000Y-103038318D01*
X143783774Y-103000000D01*
X143780000Y-102961682D01*
X143780000Y-102923177D01*
X143772488Y-102885412D01*
X143768714Y-102847093D01*
X143757537Y-102810247D01*
X143750025Y-102772482D01*
X143735290Y-102736908D01*
X143724113Y-102700063D01*
X143705963Y-102666106D01*
X143691227Y-102630531D01*
X143669835Y-102598515D01*
X143651684Y-102564558D01*
X143627255Y-102534792D01*
X143605865Y-102502779D01*
X143578642Y-102475556D01*
X143554212Y-102445788D01*
X143524444Y-102421358D01*
X143497221Y-102394135D01*
X143465208Y-102372745D01*
X143435442Y-102348316D01*
X143401485Y-102330165D01*
X143369469Y-102308773D01*
X143333894Y-102294037D01*
X143299937Y-102275887D01*
X143263092Y-102264710D01*
X143227518Y-102249975D01*
X143189753Y-102242463D01*
X143152907Y-102231286D01*
X143114588Y-102227512D01*
X143076823Y-102220000D01*
X139038318Y-102220000D01*
X139000000Y-102216226D01*
X138961682Y-102220000D01*
X138847093Y-102231286D01*
X138818367Y-102240000D01*
X138700062Y-102275887D01*
X138685960Y-102283425D01*
X138564558Y-102348316D01*
X138445788Y-102445788D01*
X138421363Y-102475550D01*
X137676914Y-103220000D01*
X131039384Y-103220000D01*
X131035948Y-103185111D01*
X131019937Y-103132330D01*
X130993937Y-103083688D01*
X130958947Y-103041053D01*
X130916312Y-103006063D01*
X130867670Y-102980063D01*
X130814889Y-102964052D01*
X130760000Y-102958646D01*
X129240000Y-102958646D01*
X129185111Y-102964052D01*
X129132330Y-102980063D01*
X129083688Y-103006063D01*
X129041053Y-103041053D01*
X129006063Y-103083688D01*
X128980063Y-103132330D01*
X128964052Y-103185111D01*
X128958646Y-103240000D01*
X122632718Y-103240000D01*
X122798189Y-102992356D01*
X122941791Y-102645668D01*
X123015000Y-102277626D01*
X123015000Y-101902374D01*
X122941791Y-101534332D01*
X122798189Y-101187644D01*
X122672809Y-101000000D01*
X140216226Y-101000000D01*
X140220000Y-101038318D01*
X140220000Y-101076823D01*
X140227512Y-101114588D01*
X140231286Y-101152907D01*
X140242463Y-101189753D01*
X140249975Y-101227518D01*
X140264710Y-101263092D01*
X140275887Y-101299937D01*
X140294037Y-101333894D01*
X140308773Y-101369469D01*
X140330165Y-101401485D01*
X140348316Y-101435442D01*
X140372745Y-101465208D01*
X140394135Y-101497221D01*
X140421358Y-101524444D01*
X140445788Y-101554212D01*
X140475556Y-101578642D01*
X140502779Y-101605865D01*
X140534792Y-101627255D01*
X140564558Y-101651684D01*
X140598515Y-101669835D01*
X140630531Y-101691227D01*
X140666106Y-101705963D01*
X140700063Y-101724113D01*
X140736908Y-101735290D01*
X140772482Y-101750025D01*
X140810247Y-101757537D01*
X140847093Y-101768714D01*
X140885412Y-101772488D01*
X140923177Y-101780000D01*
X142961682Y-101780000D01*
X143000000Y-101783774D01*
X143038318Y-101780000D01*
X143076823Y-101780000D01*
X143114588Y-101772488D01*
X143152907Y-101768714D01*
X143189753Y-101757537D01*
X143227518Y-101750025D01*
X143263092Y-101735290D01*
X143299937Y-101724113D01*
X143333894Y-101705963D01*
X143369469Y-101691227D01*
X143401485Y-101669835D01*
X143435442Y-101651684D01*
X143465208Y-101627255D01*
X143497221Y-101605865D01*
X143524444Y-101578642D01*
X143554212Y-101554212D01*
X143578642Y-101524444D01*
X143605865Y-101497221D01*
X144384381Y-100718705D01*
X149520000Y-100718705D01*
X149520000Y-100941295D01*
X149563425Y-101159609D01*
X149648607Y-101365256D01*
X149772271Y-101550333D01*
X149929667Y-101707729D01*
X150114744Y-101831393D01*
X150320391Y-101916575D01*
X150538705Y-101960000D01*
X150761295Y-101960000D01*
X150979609Y-101916575D01*
X151185256Y-101831393D01*
X151370333Y-101707729D01*
X151393310Y-101684752D01*
X152434243Y-101684752D01*
X152521324Y-101869445D01*
X152736957Y-101979925D01*
X152970001Y-102046213D01*
X153211500Y-102065764D01*
X153452173Y-102037825D01*
X153682770Y-101963470D01*
X153858676Y-101869445D01*
X153945757Y-101684752D01*
X153190000Y-100928995D01*
X152434243Y-101684752D01*
X151393310Y-101684752D01*
X151527729Y-101550333D01*
X151651393Y-101365256D01*
X151736575Y-101159609D01*
X151780000Y-100941295D01*
X151780000Y-100851500D01*
X151954236Y-100851500D01*
X151982175Y-101092173D01*
X152056530Y-101322770D01*
X152150555Y-101498676D01*
X152335248Y-101585757D01*
X153091005Y-100830000D01*
X153288995Y-100830000D01*
X154044752Y-101585757D01*
X154229445Y-101498676D01*
X154339925Y-101283043D01*
X154406213Y-101049999D01*
X154425764Y-100808500D01*
X154397825Y-100567827D01*
X154323470Y-100337230D01*
X154229445Y-100161324D01*
X154044752Y-100074243D01*
X153288995Y-100830000D01*
X153091005Y-100830000D01*
X152335248Y-100074243D01*
X152150555Y-100161324D01*
X152040075Y-100376957D01*
X151973787Y-100610001D01*
X151954236Y-100851500D01*
X151780000Y-100851500D01*
X151780000Y-100718705D01*
X151736575Y-100500391D01*
X151651393Y-100294744D01*
X151527729Y-100109667D01*
X151393310Y-99975248D01*
X152434243Y-99975248D01*
X153190000Y-100731005D01*
X153945757Y-99975248D01*
X153858676Y-99790555D01*
X153643043Y-99680075D01*
X153409999Y-99613787D01*
X153168500Y-99594236D01*
X152927827Y-99622175D01*
X152697230Y-99696530D01*
X152521324Y-99790555D01*
X152434243Y-99975248D01*
X151393310Y-99975248D01*
X151370333Y-99952271D01*
X151185256Y-99828607D01*
X150979609Y-99743425D01*
X150761295Y-99700000D01*
X150538705Y-99700000D01*
X150320391Y-99743425D01*
X150114744Y-99828607D01*
X149929667Y-99952271D01*
X149772271Y-100109667D01*
X149648607Y-100294744D01*
X149563425Y-100500391D01*
X149520000Y-100718705D01*
X144384381Y-100718705D01*
X146924381Y-98178705D01*
X149520000Y-98178705D01*
X149520000Y-98401295D01*
X149563425Y-98619609D01*
X149648607Y-98825256D01*
X149772271Y-99010333D01*
X149929667Y-99167729D01*
X150114744Y-99291393D01*
X150320391Y-99376575D01*
X150538705Y-99420000D01*
X150761295Y-99420000D01*
X150979609Y-99376575D01*
X151185256Y-99291393D01*
X151370333Y-99167729D01*
X151393310Y-99144752D01*
X152434243Y-99144752D01*
X152521324Y-99329445D01*
X152736957Y-99439925D01*
X152970001Y-99506213D01*
X153211500Y-99525764D01*
X153452173Y-99497825D01*
X153682770Y-99423470D01*
X153858676Y-99329445D01*
X153945757Y-99144752D01*
X153190000Y-98388995D01*
X152434243Y-99144752D01*
X151393310Y-99144752D01*
X151527729Y-99010333D01*
X151651393Y-98825256D01*
X151736575Y-98619609D01*
X151780000Y-98401295D01*
X151780000Y-98311500D01*
X151954236Y-98311500D01*
X151982175Y-98552173D01*
X152056530Y-98782770D01*
X152150555Y-98958676D01*
X152335248Y-99045757D01*
X153091005Y-98290000D01*
X153288995Y-98290000D01*
X154044752Y-99045757D01*
X154229445Y-98958676D01*
X154339925Y-98743043D01*
X154406213Y-98509999D01*
X154425764Y-98268500D01*
X154397825Y-98027827D01*
X154323470Y-97797230D01*
X154229445Y-97621324D01*
X154044752Y-97534243D01*
X153288995Y-98290000D01*
X153091005Y-98290000D01*
X152335248Y-97534243D01*
X152150555Y-97621324D01*
X152040075Y-97836957D01*
X151973787Y-98070001D01*
X151954236Y-98311500D01*
X151780000Y-98311500D01*
X151780000Y-98178705D01*
X151736575Y-97960391D01*
X151651393Y-97754744D01*
X151527729Y-97569667D01*
X151393310Y-97435248D01*
X152434243Y-97435248D01*
X153190000Y-98191005D01*
X153945757Y-97435248D01*
X153858676Y-97250555D01*
X153643043Y-97140075D01*
X153409999Y-97073787D01*
X153168500Y-97054236D01*
X152927827Y-97082175D01*
X152697230Y-97156530D01*
X152521324Y-97250555D01*
X152434243Y-97435248D01*
X151393310Y-97435248D01*
X151370333Y-97412271D01*
X151185256Y-97288607D01*
X150979609Y-97203425D01*
X150761295Y-97160000D01*
X150538705Y-97160000D01*
X150320391Y-97203425D01*
X150114744Y-97288607D01*
X149929667Y-97412271D01*
X149772271Y-97569667D01*
X149648607Y-97754744D01*
X149563425Y-97960391D01*
X149520000Y-98178705D01*
X146924381Y-98178705D01*
X148573087Y-96530000D01*
X149552013Y-96530000D01*
X149559093Y-96553340D01*
X149608195Y-96645204D01*
X149674276Y-96725724D01*
X149754796Y-96791805D01*
X149846660Y-96840907D01*
X149946338Y-96871144D01*
X150050000Y-96881354D01*
X151250000Y-96881354D01*
X151353662Y-96871144D01*
X151453340Y-96840907D01*
X151545204Y-96791805D01*
X151625724Y-96725724D01*
X151691805Y-96645204D01*
X151740907Y-96553340D01*
X151771144Y-96453662D01*
X151781354Y-96350000D01*
X151781354Y-95638705D01*
X152060000Y-95638705D01*
X152060000Y-95861295D01*
X152103425Y-96079609D01*
X152188607Y-96285256D01*
X152312271Y-96470333D01*
X152469667Y-96627729D01*
X152654744Y-96751393D01*
X152860391Y-96836575D01*
X153078705Y-96880000D01*
X153301295Y-96880000D01*
X153519609Y-96836575D01*
X153725256Y-96751393D01*
X153910333Y-96627729D01*
X154067729Y-96470333D01*
X154191393Y-96285256D01*
X154276575Y-96079609D01*
X154320000Y-95861295D01*
X154320000Y-95638705D01*
X154276575Y-95420391D01*
X154191393Y-95214744D01*
X154067729Y-95029667D01*
X153910333Y-94872271D01*
X153725256Y-94748607D01*
X153519609Y-94663425D01*
X153301295Y-94620000D01*
X153078705Y-94620000D01*
X152860391Y-94663425D01*
X152654744Y-94748607D01*
X152469667Y-94872271D01*
X152312271Y-95029667D01*
X152188607Y-95214744D01*
X152103425Y-95420391D01*
X152060000Y-95638705D01*
X151781354Y-95638705D01*
X151781354Y-95150000D01*
X151771144Y-95046338D01*
X151740907Y-94946660D01*
X151691805Y-94854796D01*
X151625724Y-94774276D01*
X151545204Y-94708195D01*
X151453340Y-94659093D01*
X151353662Y-94628856D01*
X151250000Y-94618646D01*
X150050000Y-94618646D01*
X149946338Y-94628856D01*
X149846660Y-94659093D01*
X149754796Y-94708195D01*
X149674276Y-94774276D01*
X149608195Y-94854796D01*
X149559093Y-94946660D01*
X149552013Y-94970000D01*
X148288310Y-94970000D01*
X148249999Y-94966227D01*
X148211689Y-94970000D01*
X148211682Y-94970000D01*
X148097093Y-94981286D01*
X147950063Y-95025887D01*
X147814558Y-95098316D01*
X147695788Y-95195788D01*
X147671363Y-95225550D01*
X142676914Y-100220000D01*
X140923177Y-100220000D01*
X140885412Y-100227512D01*
X140847093Y-100231286D01*
X140810247Y-100242463D01*
X140772482Y-100249975D01*
X140736908Y-100264710D01*
X140700063Y-100275887D01*
X140666106Y-100294037D01*
X140630531Y-100308773D01*
X140598515Y-100330165D01*
X140564558Y-100348316D01*
X140534792Y-100372745D01*
X140502779Y-100394135D01*
X140475556Y-100421358D01*
X140445788Y-100445788D01*
X140421358Y-100475556D01*
X140394135Y-100502779D01*
X140372745Y-100534792D01*
X140348316Y-100564558D01*
X140330165Y-100598515D01*
X140308773Y-100630531D01*
X140294037Y-100666106D01*
X140275887Y-100700063D01*
X140264710Y-100736908D01*
X140249975Y-100772482D01*
X140242463Y-100810247D01*
X140231286Y-100847093D01*
X140227512Y-100885412D01*
X140220000Y-100923177D01*
X140220000Y-100961682D01*
X140216226Y-101000000D01*
X122672809Y-101000000D01*
X122589710Y-100875634D01*
X122324366Y-100610290D01*
X122012356Y-100401811D01*
X121665668Y-100258209D01*
X121297626Y-100185000D01*
X120922374Y-100185000D01*
X120554332Y-100258209D01*
X120207644Y-100401811D01*
X119895634Y-100610290D01*
X119630290Y-100875634D01*
X119421811Y-101187644D01*
X119278209Y-101534332D01*
X119205000Y-101902374D01*
X113300000Y-101902374D01*
X113300000Y-99214104D01*
X145050125Y-88300000D01*
X158700001Y-88300000D01*
X158700000Y-125700000D01*
G04 #@! TD*
M02*
