G04 #@! TF.GenerationSoftware,KiCad,Pcbnew,5.1.6*
G04 #@! TF.CreationDate,2020-10-01T15:01:27+02:00*
G04 #@! TF.ProjectId,TagConnect2ARM,54616743-6f6e-46e6-9563-743241524d2e,rev?*
G04 #@! TF.SameCoordinates,Original*
G04 #@! TF.FileFunction,Legend,Top*
G04 #@! TF.FilePolarity,Positive*
%FSLAX46Y46*%
G04 Gerber Fmt 4.6, Leading zero omitted, Abs format (unit mm)*
G04 Created by KiCad (PCBNEW 5.1.6) date 2020-10-01 15:01:27*
%MOMM*%
%LPD*%
G01*
G04 APERTURE LIST*
%ADD10C,0.120000*%
%ADD11C,0.100000*%
%ADD12C,0.150000*%
G04 APERTURE END LIST*
D10*
G04 #@! TO.C,J101*
X129230000Y-100100000D02*
X130760000Y-100100000D01*
X122210000Y-100570000D02*
X131230000Y-100570000D01*
D11*
X122280000Y-100570000D02*
X122210000Y-100570000D01*
D10*
X113230000Y-100570000D02*
X120010000Y-100570000D01*
X113230000Y-113770000D02*
X113230000Y-100570000D01*
D11*
X113240000Y-113770000D02*
X113230000Y-113770000D01*
D10*
X113230000Y-113770000D02*
X120010000Y-113770000D01*
D11*
X113350000Y-113770000D02*
X113230000Y-113770000D01*
D10*
X131230000Y-113770000D02*
X122210000Y-113770000D01*
X131230000Y-100570000D02*
X131230000Y-113770000D01*
G04 #@! TO.C,J102*
X147360000Y-90540000D02*
X156480000Y-90540000D01*
X156480000Y-90540000D02*
X156480000Y-123820000D01*
X156480000Y-123820000D02*
X147360000Y-123820000D01*
X147360000Y-123820000D02*
X147360000Y-90540000D01*
X147360000Y-105130000D02*
X148670000Y-105130000D01*
X148670000Y-105130000D02*
X148670000Y-91840000D01*
X148670000Y-91840000D02*
X155170000Y-91840000D01*
X155170000Y-91840000D02*
X155170000Y-122520000D01*
X155170000Y-122520000D02*
X148670000Y-122520000D01*
X148670000Y-122520000D02*
X148670000Y-109230000D01*
X148670000Y-109230000D02*
X148670000Y-109230000D01*
X148670000Y-109230000D02*
X147360000Y-109230000D01*
X146970000Y-95750000D02*
X145970000Y-95250000D01*
X145970000Y-95250000D02*
X145970000Y-96250000D01*
X145970000Y-96250000D02*
X146970000Y-95750000D01*
G04 #@! TO.C,J101*
D12*
X124714285Y-98452380D02*
X124714285Y-99166666D01*
X124666666Y-99309523D01*
X124571428Y-99404761D01*
X124428571Y-99452380D01*
X124333333Y-99452380D01*
X125714285Y-99452380D02*
X125142857Y-99452380D01*
X125428571Y-99452380D02*
X125428571Y-98452380D01*
X125333333Y-98595238D01*
X125238095Y-98690476D01*
X125142857Y-98738095D01*
X126333333Y-98452380D02*
X126428571Y-98452380D01*
X126523809Y-98500000D01*
X126571428Y-98547619D01*
X126619047Y-98642857D01*
X126666666Y-98833333D01*
X126666666Y-99071428D01*
X126619047Y-99261904D01*
X126571428Y-99357142D01*
X126523809Y-99404761D01*
X126428571Y-99452380D01*
X126333333Y-99452380D01*
X126238095Y-99404761D01*
X126190476Y-99357142D01*
X126142857Y-99261904D01*
X126095238Y-99071428D01*
X126095238Y-98833333D01*
X126142857Y-98642857D01*
X126190476Y-98547619D01*
X126238095Y-98500000D01*
X126333333Y-98452380D01*
X127619047Y-99452380D02*
X127047619Y-99452380D01*
X127333333Y-99452380D02*
X127333333Y-98452380D01*
X127238095Y-98595238D01*
X127142857Y-98690476D01*
X127047619Y-98738095D01*
G04 #@! TO.C,J102*
X150634285Y-89102380D02*
X150634285Y-89816666D01*
X150586666Y-89959523D01*
X150491428Y-90054761D01*
X150348571Y-90102380D01*
X150253333Y-90102380D01*
X151634285Y-90102380D02*
X151062857Y-90102380D01*
X151348571Y-90102380D02*
X151348571Y-89102380D01*
X151253333Y-89245238D01*
X151158095Y-89340476D01*
X151062857Y-89388095D01*
X152253333Y-89102380D02*
X152348571Y-89102380D01*
X152443809Y-89150000D01*
X152491428Y-89197619D01*
X152539047Y-89292857D01*
X152586666Y-89483333D01*
X152586666Y-89721428D01*
X152539047Y-89911904D01*
X152491428Y-90007142D01*
X152443809Y-90054761D01*
X152348571Y-90102380D01*
X152253333Y-90102380D01*
X152158095Y-90054761D01*
X152110476Y-90007142D01*
X152062857Y-89911904D01*
X152015238Y-89721428D01*
X152015238Y-89483333D01*
X152062857Y-89292857D01*
X152110476Y-89197619D01*
X152158095Y-89150000D01*
X152253333Y-89102380D01*
X152967619Y-89197619D02*
X153015238Y-89150000D01*
X153110476Y-89102380D01*
X153348571Y-89102380D01*
X153443809Y-89150000D01*
X153491428Y-89197619D01*
X153539047Y-89292857D01*
X153539047Y-89388095D01*
X153491428Y-89530952D01*
X152920000Y-90102380D01*
X153539047Y-90102380D01*
G04 #@! TD*
M02*
